<?xml version="1.0" encoding="UTF-8" standalone="no"?>
<!-- Created with Inkscape (http://www.inkscape.org/) -->

<svg
   xmlns:dc="http://purl.org/dc/elements/1.1/"
   xmlns:cc="http://creativecommons.org/ns#"
   xmlns:rdf="http://www.w3.org/1999/02/22-rdf-syntax-ns#"
   xmlns:svg="http://www.w3.org/2000/svg"
   xmlns="http://www.w3.org/2000/svg"
   xmlns:sodipodi="http://sodipodi.sourceforge.net/DTD/sodipodi-0.dtd"
   xmlns:inkscape="http://www.inkscape.org/namespaces/inkscape"
   version="1.1"
   id="svg2"
   xml:space="preserve"
   width="1346.5461"
   height="460.74234"
   viewBox="0 0 1346.5461 460.74234"
   sodipodi:docname="carrer.svg"
   inkscape:version="0.92.3 (2405546, 2018-03-11)"><metadata
     id="metadata8"><rdf:RDF><cc:Work
         rdf:about=""><dc:format>image/svg+xml</dc:format><dc:type
           rdf:resource="http://purl.org/dc/dcmitype/StillImage" /><dc:title /></cc:Work></rdf:RDF></metadata><defs
     id="defs6" /><sodipodi:namedview
     pagecolor="#ffffff"
     bordercolor="#666666"
     borderopacity="1"
     objecttolerance="10"
     gridtolerance="10"
     guidetolerance="10"
     inkscape:pageopacity="0"
     inkscape:pageshadow="2"
     inkscape:window-width="1366"
     inkscape:window-height="739"
     id="namedview4"
     showgrid="false"
     fit-margin-top="0"
     fit-margin-left="0"
     fit-margin-right="0"
     fit-margin-bottom="0"
     inkscape:snap-page="true"
     inkscape:zoom="0.70710678"
     inkscape:cx="620.1222"
     inkscape:cy="188.01568"
     inkscape:window-x="0"
     inkscape:window-y="0"
     inkscape:window-maximized="1"
     inkscape:current-layer="g10"
     inkscape:pagecheckerboard="true" /><g
     id="g10"
     inkscape:groupmode="layer"
     inkscape:label="ink_ext_XXXXXX"
     transform="matrix(1.3333333,0,0,-1.3333333,-326.72747,1253.7522)"><path
       inkscape:connector-curvature="0"
       id="path48"
       style="fill:#99f7a4;fill-opacity:1;fill-rule:nonzero;stroke:none;stroke-width:0.1"
       d="m 912.79521,787.31316 c 0,-3.591 -2.91,-6.501 -6.499,-6.501 -3.59,0 -6.501,2.91 -6.501,6.501 0,3.59 2.911,6.5 6.501,6.5 3.589,0 6.499,-2.91 6.499,-6.5" /><path
       inkscape:connector-curvature="0"
       id="path50"
       style="fill:#ffffff;fill-opacity:1;fill-rule:nonzero;stroke:none;stroke-width:0.1"
       d="m 981.92021,906.00116 c 0,-7.974 -6.465,-14.438 -14.438,-14.438 -7.973,0 -14.437,6.464 -14.437,14.438 0,7.974 6.464,14.437 14.437,14.437 7.973,0 14.438,-6.463 14.438,-14.437" /><path
       inkscape:connector-curvature="0"
       id="path52"
       style="fill:none;stroke:#064a1e;stroke-width:4.5;stroke-linecap:butt;stroke-linejoin:round;stroke-miterlimit:10;stroke-dasharray:none;stroke-opacity:1"
       d="m 843.39021,827.96916 49.5,49.5 23.217,-23.218 56.25,56.25" /><path
       inkscape:connector-curvature="0"
       id="path54"
       style="fill:none;stroke:#064a1e;stroke-width:4;stroke-linecap:butt;stroke-linejoin:round;stroke-miterlimit:10;stroke-dasharray:none;stroke-opacity:1"
       d="m 960.79521,910.56416 h 12 v -12" /><path
       inkscape:connector-curvature="0"
       id="path56"
       style="fill:#ffffff;fill-opacity:1;fill-rule:nonzero;stroke:none;stroke-width:0.1"
       d="m 562.79921,897.00116 c 0,-7.974 6.464,-14.438 14.437,-14.438 7.974,0 14.438,6.464 14.438,14.438 0,7.974 -6.464,14.437 -14.438,14.437 -7.973,0 -14.437,-6.463 -14.437,-14.437" /><path
       inkscape:connector-curvature="0"
       id="path58"
       style="fill:none;stroke:#064a1e;stroke-width:4.5;stroke-linecap:butt;stroke-linejoin:round;stroke-miterlimit:10;stroke-dasharray:none;stroke-opacity:1"
       d="m 701.32921,818.96916 -49.5,49.5 -23.218,-23.218 -56.25,56.25" /><path
       inkscape:connector-curvature="0"
       id="path60"
       style="fill:none;stroke:#064a1e;stroke-width:4;stroke-linecap:butt;stroke-linejoin:round;stroke-miterlimit:10;stroke-dasharray:none;stroke-opacity:1"
       d="m 582.79521,901.56416 h -11 v -12" /><path
       style="fill:#62f27a;fill-opacity:1;fill-rule:nonzero;stroke:none;stroke-width:0.13333333"
       d="M 714.33203 21 L 714.33203 39.925781 C 714.33203 40.085781 706.3763 43.514958 705.9043 43.765625 L 692.37891 29.818359 L 668.4043 54.003906 L 682.45508 67.177734 C 682.20441 67.656401 678.87813 75.666016 678.7168 75.666016 L 658.33203 75.666016 L 658.33203 109 L 678.7168 109 C 678.87813 113 682.30659 119.00466 682.55859 119.47266 L 668.61328 134.01953 L 692.79688 158.50781 L 705.9043 144.71289 C 706.3763 144.96222 714.33203 148.54046 714.33203 148.70312 L 714.33203 169 L 749 169 L 749 148.70312 C 751 148.54046 758.39447 145.11261 758.86914 144.86328 L 773.11328 158.80859 L 797.45312 134.625 L 783.58008 119.47266 C 783.83074 119.00466 787.34 113 787.5 109 L 806.33203 109 L 806.33203 75.666016 L 787.5 75.666016 C 787.34 75.666016 783.9102 67.656401 783.6582 67.177734 L 797.60352 53.617188 L 773.41992 29.628906 L 758.86914 43.669922 C 758.39447 43.417922 751 40.085781 749 39.925781 L 749 21 L 714.33203 21 z M 733.10938 77.212891 C 742.55471 77.212891 750.20898 84.867787 750.20898 94.314453 C 750.20898 103.76112 742.55471 111.41797 733.10938 111.41797 C 723.66004 111.41797 716.00391 103.76112 716.00391 94.314453 C 716.00391 84.867787 723.66004 77.212891 733.10938 77.212891 z "
       transform="matrix(0.75000002,0,0,-0.75000002,245.04561,940.31417)"
       id="path62" /><path
       style="fill:#62f27a;fill-opacity:1;fill-rule:nonzero;stroke:none;stroke-width:0.13333333"
       d="M 1234.332 51.666016 L 1234.332 67.414062 C 1234.332 67.547396 1228.0797 70.403328 1227.6797 70.611328 L 1216.5996 59.001953 L 1196.7402 79.132812 L 1208.4766 90.015625 C 1208.2672 90.414292 1205.5468 97 1205.4121 97 L 1189 97 L 1189 125 L 1205.4121 125 C 1205.5468 127.66667 1208.4027 133.28449 1208.6094 133.67383 L 1197.0039 145.76172 L 1217.1328 166.13281 L 1227.6797 154.64453 C 1228.0797 154.85253 1234.332 157.82627 1234.332 157.96094 L 1234.332 175.66602 L 1262.332 175.66602 L 1262.332 157.96094 C 1264.9987 157.82627 1270.9454 154.97105 1271.332 154.76172 L 1283.5859 166.37109 L 1304.0527 146.24219 L 1292.5996 133.67383 C 1292.8129 133.28449 1295.8257 127.66667 1295.959 125 L 1313 125 L 1313 97 L 1295.959 97 C 1295.8257 97 1292.9731 90.414292 1292.7598 90.015625 L 1304.373 78.771484 L 1284.2402 58.822266 L 1271.332 70.521484 C 1270.9454 70.312151 1264.9987 67.547396 1262.332 67.414062 L 1262.332 51.666016 L 1234.332 51.666016 z M 1250.6934 98.453125 C 1258.5467 98.453125 1264.9199 104.82483 1264.9199 112.6875 C 1264.9199 120.5515 1258.5467 126.92578 1250.6934 126.92578 C 1242.8267 126.92578 1236.4531 120.5515 1236.4531 112.6875 C 1236.4531 104.82483 1242.8267 98.453125 1250.6934 98.453125 z "
       transform="matrix(0.75000002,0,0,-0.75000002,245.04561,940.31417)"
       id="path66" /><path
       style="fill:#62f27a;fill-opacity:1;fill-rule:nonzero;stroke:none;stroke-width:0.13333333"
       d="M 293 263.66602 L 293 279.41406 C 293 279.5474 286.40834 282.40333 286.01367 282.61133 L 274.76953 271.00195 L 254.82422 291.13281 L 266.51953 302.01562 C 266.3102 302.41429 263.54678 309 263.41211 309 L 246.33203 309 L 246.33203 337 L 263.41211 337 C 263.54678 339.66667 266.40271 345.28449 266.60938 345.67383 L 255.00391 357.76172 L 275.13281 378.13281 L 286.01367 366.64453 C 286.40834 366.85253 293 369.82627 293 369.96094 L 293 387.66602 L 321 387.66602 L 321 369.96094 C 322.33333 369.82627 329.27721 366.97105 329.67188 366.76172 L 341.75977 378.37109 L 362.13086 358.24219 L 350.64258 345.67383 C 350.85191 345.28449 353.82627 339.66667 353.96094 337 L 370.33203 337 L 370.33203 309 L 353.96094 309 C 353.82627 309 350.97301 302.41429 350.76367 302.01562 L 362.37109 290.77148 L 342.24023 270.82227 L 329.67188 282.52148 C 329.27721 282.31215 322.33333 279.5474 321 279.41406 L 321 263.66602 L 293 263.66602 z M 308.6875 310.45312 C 316.55017 310.45312 322.91992 316.82483 322.91992 324.6875 C 322.91992 332.5515 316.55017 338.92578 308.6875 338.92578 C 300.82217 338.92578 294.45117 332.5515 294.45117 324.6875 C 294.45117 316.82483 300.82217 310.45312 308.6875 310.45312 z "
       transform="matrix(0.75000002,0,0,-0.75000002,245.04561,940.31417)"
       id="path70" /><path
       style="fill:#62f27a;fill-opacity:1;fill-rule:nonzero;stroke:none;stroke-width:0.13333333"
       d="M 272.85742 3 C 195.70942 3 133.16602 65.544028 133.16602 142.69336 C 133.16602 219.84136 195.70942 282.38672 272.85742 282.38672 C 350.00542 282.38672 412.54883 219.84136 412.54883 142.69336 C 412.54883 65.544028 350.00542 3 272.85742 3 z M 271.22656 61.761719 C 316.82389 61.761719 353.78711 98.727506 353.78711 144.32617 C 353.78711 189.92217 316.82389 226.89062 271.22656 226.89062 C 225.62656 226.89062 188.66211 189.92217 188.66211 144.32617 C 188.66211 98.727506 225.62656 61.761719 271.22656 61.761719 z "
       transform="matrix(0.75000002,0,0,-0.75000002,245.04561,940.31417)"
       id="path74" /><path
       inkscape:connector-curvature="0"
       id="path78"
       style="fill:none;stroke:#0fcd52;stroke-width:4.5;stroke-linecap:butt;stroke-linejoin:round;stroke-miterlimit:10;stroke-dasharray:none;stroke-opacity:1"
       d="m 448.18921,938.06416 c 57.861,0 104.768,-46.908 104.768,-104.77" /><path
       inkscape:connector-curvature="0"
       id="path80"
       style="fill:#ffffff;fill-opacity:1;fill-rule:nonzero;stroke:#064a1e;stroke-width:0.1;stroke-opacity:1"
       d="m 442.96021,884.59616 7.383,-19.686 7.381,19.686" /><path
       inkscape:connector-curvature="0"
       id="path82"
       style="fill:none;stroke:#064a1e;stroke-width:4;stroke-linecap:butt;stroke-linejoin:round;stroke-miterlimit:10;stroke-dasharray:none;stroke-opacity:1"
       d="m 477.79521,843.56416 v 26.268 c 0,8.153 -6.997,13.732 -15.149,13.732 h -24.606 c -8.154,0 -16.245,-5.579 -16.245,-13.732 v -26.268" /><path
       inkscape:connector-curvature="0"
       id="path84"
       style="fill:none;stroke:#064a1e;stroke-width:4;stroke-linecap:butt;stroke-linejoin:round;stroke-miterlimit:10;stroke-dasharray:none;stroke-opacity:1"
       d="m 448.79521,859.56416 v -4" /><path
       inkscape:connector-curvature="0"
       id="path86"
       style="fill:none;stroke:#064a1e;stroke-width:4;stroke-linecap:butt;stroke-linejoin:round;stroke-miterlimit:10;stroke-dasharray:none;stroke-opacity:1"
       d="m 448.79521,850.56416 v -7" /><path
       inkscape:connector-curvature="0"
       id="path88"
       style="fill:none;stroke:#064a1e;stroke-width:4;stroke-linecap:butt;stroke-linejoin:round;stroke-miterlimit:10;stroke-dasharray:none;stroke-opacity:1"
       d="m 460.79521,907.72116 c 0,5.436 -4.407,9.843 -9.844,9.843 h -4.312 c -5.437,0 -9.844,-4.407 -9.844,-9.843 v -7.315 c 0,-5.436 4.407,-9.842 9.844,-9.842 h 4.312 c 5.437,0 9.844,4.406 9.844,9.842 z" /><path
       inkscape:connector-curvature="0"
       id="path90"
       style="fill:none;stroke:#064a1e;stroke-width:4;stroke-linecap:butt;stroke-linejoin:round;stroke-miterlimit:10;stroke-dasharray:none;stroke-opacity:1"
       d="m 432.79521,843.56416 v 18" /><path
       inkscape:connector-curvature="0"
       id="path92"
       style="fill:none;stroke:#064a1e;stroke-width:4;stroke-linecap:butt;stroke-linejoin:round;stroke-miterlimit:10;stroke-dasharray:none;stroke-opacity:1"
       d="m 463.79521,843.56416 v 18" /><path
       style="fill:#62f27a;fill-opacity:1;fill-rule:nonzero;stroke:none;stroke-width:0.13333333"
       d="M 1206.8574 179.00195 C 1129.7094 179.00195 1067.1641 241.54403 1067.1641 318.69336 C 1067.1641 395.84136 1129.7094 458.38672 1206.8574 458.38672 C 1284.0121 458.38672 1346.5469 395.84136 1346.5469 318.69336 C 1346.5469 241.54403 1284.0121 179.00195 1206.8574 179.00195 z M 1205.2266 237.76172 C 1250.8266 237.76172 1287.7852 274.72751 1287.7852 320.32617 C 1287.7852 365.92217 1250.8266 402.89063 1205.2266 402.89062 C 1159.6252 402.89062 1122.6602 365.92217 1122.6602 320.32617 C 1122.6602 274.72751 1159.6252 237.76172 1205.2266 237.76172 z "
       transform="matrix(0.75000002,0,0,-0.75000002,245.04561,940.31417)"
       id="path94" /><path
       inkscape:connector-curvature="0"
       id="path98"
       style="fill:#ffffff;fill-opacity:1;fill-rule:nonzero;stroke:none;stroke-width:0.1"
       d="m 1141.9602,656.59616 7.383,-19.686 7.382,19.686" /><path
       inkscape:connector-curvature="0"
       id="path100"
       style="fill:none;stroke:#064a1e;stroke-width:4;stroke-linecap:butt;stroke-linejoin:round;stroke-miterlimit:10;stroke-dasharray:none;stroke-opacity:1"
       d="m 1176.7952,615.56416 v 26.268 c 0,8.153 -7,13.732 -15.15,13.732 h -24.606 c -8.153,0 -16.244,-5.579 -16.244,-13.732 v -26.268" /><path
       inkscape:connector-curvature="0"
       id="path102"
       style="fill:none;stroke:#064a1e;stroke-width:4;stroke-linecap:butt;stroke-linejoin:round;stroke-miterlimit:10;stroke-dasharray:none;stroke-opacity:1"
       d="m 1147.7952,631.56416 v -4" /><path
       inkscape:connector-curvature="0"
       id="path104"
       style="fill:none;stroke:#064a1e;stroke-width:4;stroke-linecap:butt;stroke-linejoin:round;stroke-miterlimit:10;stroke-dasharray:none;stroke-opacity:1"
       d="m 1147.7952,622.56416 v -7" /><path
       inkscape:connector-curvature="0"
       id="path106"
       style="fill:none;stroke:#064a1e;stroke-width:4;stroke-linecap:butt;stroke-linejoin:round;stroke-miterlimit:10;stroke-dasharray:none;stroke-opacity:1"
       d="m 1159.7952,679.72116 c 0,5.436 -4.407,9.843 -9.844,9.843 h -4.312 c -5.437,0 -9.844,-4.407 -9.844,-9.843 v -7.315 c 0,-5.436 4.407,-9.842 9.844,-9.842 h 4.312 c 5.437,0 9.844,4.406 9.844,9.842 z" /><path
       inkscape:connector-curvature="0"
       id="path108"
       style="fill:none;stroke:#064a1e;stroke-width:4;stroke-linecap:butt;stroke-linejoin:round;stroke-miterlimit:10;stroke-dasharray:none;stroke-opacity:1"
       d="m 1131.7952,615.56416 v 18" /><path
       inkscape:connector-curvature="0"
       id="path110"
       style="fill:none;stroke:#064a1e;stroke-width:4;stroke-linecap:butt;stroke-linejoin:round;stroke-miterlimit:10;stroke-dasharray:none;stroke-opacity:1"
       d="m 1162.7952,615.56416 v 18" /><path
       inkscape:connector-curvature="0"
       id="path112"
       style="fill:#62f27a;fill-opacity:1;fill-rule:nonzero;stroke:#064a1e;stroke-width:0.1;stroke-opacity:1"
       d="m 591.29621,711.31316 c 0,-10.355 -8.396,-18.75 -18.751,-18.75 -10.357,0 -18.75,8.395 -18.75,18.75 0,10.355 8.393,18.751 18.75,18.751 10.355,0 18.751,-8.396 18.751,-18.751" /><path
       inkscape:connector-curvature="0"
       id="path114"
       style="fill:#62f27a;fill-opacity:1;fill-rule:nonzero;stroke:#064a1e;stroke-width:0.1;stroke-opacity:1"
       d="m 591.29621,670.81316 c 0,-10.355 -8.396,-18.75 -18.751,-18.75 -10.357,0 -18.75,8.395 -18.75,18.75 0,10.355 8.393,18.751 18.75,18.751 10.355,0 18.751,-8.396 18.751,-18.751" /><path
       inkscape:connector-curvature="0"
       id="path116"
       style="fill:#62f27a;fill-opacity:1;fill-rule:nonzero;stroke:none;stroke-width:0.1"
       d="m 1041.2962,892.81316 c 0,-10.355 -8.397,-18.75 -18.752,-18.75 -10.356,0 -18.75,8.395 -18.75,18.75 0,10.355 8.394,18.751 18.75,18.751 10.355,0 18.752,-8.396 18.752,-18.751" /><path
       inkscape:connector-curvature="0"
       id="path118"
       style="fill:#99f7a4;fill-opacity:1;fill-rule:nonzero;stroke:none;stroke-width:0.1"
       d="m 1041.2962,849.31316 c 0,-10.355 -8.397,-18.75 -18.752,-18.75 -10.356,0 -18.75,8.395 -18.75,18.75 0,10.355 8.394,18.751 18.75,18.751 10.355,0 18.752,-8.396 18.752,-18.751" /><path
       inkscape:connector-curvature="0"
       id="path128"
       style="fill:#ffffff;fill-opacity:1;fill-rule:nonzero;stroke:none;stroke-width:0.1"
       d="m 431.44721,826.78416 -29.667,-35.204 c -9.3,12.62 -23.248,20.813 -35.204,20.813 -18.598,0 -32.104,-14.835 -32.104,-35.425 0,-20.812 13.506,-35.868 32.104,-35.868 11.071,0 25.019,6.863 35.204,17.711 l 29.667,-31.66 c -17.269,-18.819 -43.616,-30.996 -67.528,-30.996 -47.602,0 -82.141,33.875 -82.141,80.148 0,45.61 35.425,78.819 84.134,78.819 23.691,0 49.595,-11.069 65.535,-28.338" /><path
       inkscape:connector-curvature="0"
       id="path130"
       style="fill:#ffffff;fill-opacity:1;fill-rule:nonzero;stroke:none;stroke-width:0.1"
       d="m 516.68521,802.42916 -16.384,-45.388 h 32.325 z m -29.669,-82.141 -7.97,-21.92 h -52.694 l 65.535,155.205 h 52.695 l 63.101,-155.205 h -54.687 l -7.75,21.92 h -58.23" /><path
       inkscape:connector-curvature="0"
       id="path132"
       style="fill:#ffffff;fill-opacity:1;fill-rule:nonzero;stroke:none;stroke-width:0.1"
       d="m 691.59221,777.63116 c 11.07,0 17.491,6.865 17.491,18.819 0,11.515 -6.421,18.156 -17.491,18.156 h -23.691 v -36.975 z m -4.428,-38.967 h -19.263 v -40.296 h -51.365 v 155.205 h 75.056 c 42.066,0 66.201,-20.147 66.201,-55.572 0,-22.585 -8.636,-39.41 -24.576,-49.152 l 30.553,-50.481 h -58.008 l -18.598,40.296" /><path
       inkscape:connector-curvature="0"
       id="path134"
       style="fill:#ffffff;fill-opacity:1;fill-rule:nonzero;stroke:none;stroke-width:0.1"
       d="m 828.41721,814.60616 v -19.041 h 72.619 v -38.967 h -72.619 v -19.263 h 81.917 v -38.967 h -133.284 v 155.205 h 131.294 v -38.967 h -79.927" /><path
       inkscape:connector-curvature="0"
       id="path136"
       style="fill:#ffffff;fill-opacity:1;fill-rule:nonzero;stroke:none;stroke-width:0.1"
       d="m 981.18221,814.60616 v -19.041 h 72.61899 v -38.967 h -72.61899 v -19.263 h 81.91799 v -38.967 H 929.81521 v 155.205 h 131.29399 v -38.967 h -79.92699" /><path
       inkscape:connector-curvature="0"
       id="path138"
       style="fill:#ffffff;fill-opacity:1;fill-rule:nonzero;stroke:none;stroke-width:0.1"
       d="m 1157.6352,777.63116 c 11.07,0 17.49,6.865 17.49,18.819 0,11.515 -6.42,18.156 -17.49,18.156 h -23.689 v -36.975 z m -4.427,-38.967 h -19.262 v -40.296 h -51.365 v 155.205 h 75.054 c 42.07,0 66.2,-20.147 66.2,-55.572 0,-22.585 -8.64,-39.41 -24.57,-49.152 l 30.55,-50.481 h -58.01 l -18.597,40.296" /><path
       inkscape:connector-curvature="0"
       id="path140"
       style="fill:none;stroke:#064a1e;stroke-width:4.5;stroke-linecap:butt;stroke-linejoin:round;stroke-miterlimit:10;stroke-dasharray:none;stroke-opacity:1"
       d="m 1010.2942,889.29516 7.438,-7.436 18.267,18.266" /><path
       inkscape:connector-curvature="0"
       id="path142"
       style="fill:none;stroke:#064a1e;stroke-width:4;stroke-linecap:butt;stroke-linejoin:round;stroke-miterlimit:10;stroke-dasharray:none;stroke-opacity:1"
       d="m 1046.7952,899.56416 h 18" /><path
       inkscape:connector-curvature="0"
       id="path144"
       style="fill:none;stroke:#064a1e;stroke-width:4;stroke-linecap:butt;stroke-linejoin:round;stroke-miterlimit:10;stroke-dasharray:none;stroke-opacity:1"
       d="m 1046.7952,890.56416 h 70" /><path
       inkscape:connector-curvature="0"
       id="path146"
       style="fill:none;stroke:#064a1e;stroke-width:4;stroke-linecap:butt;stroke-linejoin:round;stroke-miterlimit:10;stroke-dasharray:none;stroke-opacity:1"
       d="m 1046.7952,881.56416 h 70" /><path
       inkscape:connector-curvature="0"
       id="path148"
       style="fill:#62f27a;stroke:#064a1e;stroke-width:4.5;stroke-linecap:butt;stroke-linejoin:round;stroke-miterlimit:10;stroke-dasharray:none;stroke-opacity:1;fill-opacity:1"
       d="m 1010.2942,856.29516 7.438,-7.436 18.267,18.266" /><path
       inkscape:connector-curvature="0"
       id="path150"
       style="fill:none;stroke:#064a1e;stroke-width:4;stroke-linecap:butt;stroke-linejoin:round;stroke-miterlimit:10;stroke-dasharray:none;stroke-opacity:1"
       d="m 1046.7952,866.56416 h 18" /><path
       inkscape:connector-curvature="0"
       id="path152"
       style="fill:none;stroke:#064a1e;stroke-width:4;stroke-linecap:butt;stroke-linejoin:round;stroke-miterlimit:10;stroke-dasharray:none;stroke-opacity:1"
       d="m 1046.7952,857.56416 h 70" /><path
       inkscape:connector-curvature="0"
       id="path154"
       style="fill:none;stroke:#064a1e;stroke-width:4;stroke-linecap:butt;stroke-linejoin:round;stroke-miterlimit:10;stroke-dasharray:none;stroke-opacity:1"
       d="m 1046.7952,848.56416 h 70" /><path
       inkscape:connector-curvature="0"
       id="path156"
       style="fill:none;stroke:#064a1e;stroke-width:4.5;stroke-linecap:butt;stroke-linejoin:round;stroke-miterlimit:10;stroke-dasharray:none;stroke-opacity:1"
       d="m 1010.2942,823.29516 7.438,-7.436 18.267,18.266" /><path
       inkscape:connector-curvature="0"
       id="path158"
       style="fill:none;stroke:#064a1e;stroke-width:4;stroke-linecap:butt;stroke-linejoin:round;stroke-miterlimit:10;stroke-dasharray:none;stroke-opacity:1"
       d="m 1046.7952,833.56416 h 18" /><path
       inkscape:connector-curvature="0"
       id="path160"
       style="fill:none;stroke:#064a1e;stroke-width:4;stroke-linecap:butt;stroke-linejoin:round;stroke-miterlimit:10;stroke-dasharray:none;stroke-opacity:1"
       d="m 1046.7952,824.56416 h 70" /><path
       inkscape:connector-curvature="0"
       id="path162"
       style="fill:none;stroke:#064a1e;stroke-width:4;stroke-linecap:butt;stroke-linejoin:round;stroke-miterlimit:10;stroke-dasharray:none;stroke-opacity:1"
       d="m 1046.7952,815.56416 h 70" /><path
       inkscape:connector-curvature="0"
       id="path164"
       style="fill:none;stroke:#064a1e;stroke-width:4.5;stroke-linecap:butt;stroke-linejoin:round;stroke-miterlimit:10;stroke-dasharray:none;stroke-opacity:1"
       d="m 563.29421,742.29516 7.439,-7.436 18.266,18.266" /><path
       inkscape:connector-curvature="0"
       id="path166"
       style="fill:none;stroke:#064a1e;stroke-width:4;stroke-linecap:butt;stroke-linejoin:round;stroke-miterlimit:10;stroke-dasharray:none;stroke-opacity:1"
       d="m 599.79521,752.56416 h 18" /><path
       inkscape:connector-curvature="0"
       id="path168"
       style="fill:none;stroke:#064a1e;stroke-width:4;stroke-linecap:butt;stroke-linejoin:round;stroke-miterlimit:10;stroke-dasharray:none;stroke-opacity:1"
       d="m 599.79521,743.56416 h 70" /><path
       inkscape:connector-curvature="0"
       id="path170"
       style="fill:none;stroke:#064a1e;stroke-width:4;stroke-linecap:butt;stroke-linejoin:round;stroke-miterlimit:10;stroke-dasharray:none;stroke-opacity:1"
       d="m 599.79521,734.56416 h 70" /><path
       inkscape:connector-curvature="0"
       id="path172"
       style="fill:none;stroke:#064a1e;stroke-width:4.5;stroke-linecap:butt;stroke-linejoin:round;stroke-miterlimit:10;stroke-dasharray:none;stroke-opacity:1"
       d="m 563.29421,709.29516 7.439,-7.436 18.266,18.266" /><path
       inkscape:connector-curvature="0"
       id="path174"
       style="fill:none;stroke:#064a1e;stroke-width:4;stroke-linecap:butt;stroke-linejoin:round;stroke-miterlimit:10;stroke-dasharray:none;stroke-opacity:1"
       d="m 599.79521,719.56416 h 18" /><path
       inkscape:connector-curvature="0"
       id="path176"
       style="fill:none;stroke:#064a1e;stroke-width:4;stroke-linecap:butt;stroke-linejoin:round;stroke-miterlimit:10;stroke-dasharray:none;stroke-opacity:1"
       d="m 599.79521,710.56416 h 70" /><path
       inkscape:connector-curvature="0"
       id="path178"
       style="fill:none;stroke:#064a1e;stroke-width:4;stroke-linecap:butt;stroke-linejoin:round;stroke-miterlimit:10;stroke-dasharray:none;stroke-opacity:1"
       d="m 599.79521,701.56416 h 70" /><path
       inkscape:connector-curvature="0"
       id="path180"
       style="fill:none;stroke:#064a1e;stroke-width:4.5;stroke-linecap:butt;stroke-linejoin:round;stroke-miterlimit:10;stroke-dasharray:none;stroke-opacity:1"
       d="m 563.29421,676.29516 7.439,-7.436 18.266,18.266" /><path
       inkscape:connector-curvature="0"
       id="path182"
       style="fill:none;stroke:#064a1e;stroke-width:4;stroke-linecap:butt;stroke-linejoin:round;stroke-miterlimit:10;stroke-dasharray:none;stroke-opacity:1"
       d="m 599.79521,686.56416 h 18" /><path
       inkscape:connector-curvature="0"
       id="path184"
       style="fill:none;stroke:#064a1e;stroke-width:4;stroke-linecap:butt;stroke-linejoin:round;stroke-miterlimit:10;stroke-dasharray:none;stroke-opacity:1"
       d="m 599.79521,677.56416 h 70" /><path
       inkscape:connector-curvature="0"
       id="path186"
       style="fill:none;stroke:#064a1e;stroke-width:4;stroke-linecap:butt;stroke-linejoin:round;stroke-miterlimit:10;stroke-dasharray:none;stroke-opacity:1"
       d="m 599.79521,668.56416 h 70" /><path
       inkscape:connector-curvature="0"
       id="path188"
       style="fill:#000000;fill-opacity:0;fill-rule:nonzero;stroke:none;stroke-width:0.1"
       d="m 986.79521,672.56416 v -18 h -128 v 18 h 128" /><path
       inkscape:connector-curvature="0"
       id="path190"
       style="fill:#ffffff;fill-opacity:1;fill-rule:nonzero;stroke:none;stroke-width:0.1"
       d="m 833.52221,664.00316 25.273,-9.311 v 17.871 z" /><path
       inkscape:connector-curvature="0"
       id="path192"
       style="fill:#ffffff;fill-opacity:1;fill-rule:nonzero;stroke:none;stroke-width:0.1"
       d="m 1011.7952,672.56416 v -18 h -24.99999 v 18 h 24.99999" /><path
       inkscape:connector-curvature="0"
       id="path194"
       style="fill:none;stroke:#064a1e;stroke-width:4;stroke-linecap:butt;stroke-linejoin:round;stroke-miterlimit:10;stroke-dasharray:none;stroke-opacity:1"
       d="m 987.79521,654.56416 v 18" /><path
       inkscape:connector-curvature="0"
       id="path196"
       style="fill:none;stroke:#064a1e;stroke-width:4;stroke-linecap:butt;stroke-linejoin:round;stroke-miterlimit:10;stroke-dasharray:none;stroke-opacity:1"
       d="m 858.79521,662.56416 h 129" /><path
       inkscape:connector-curvature="0"
       id="path198"
       style="fill:none;stroke:#064a1e;stroke-width:4.5;stroke-linecap:butt;stroke-linejoin:round;stroke-miterlimit:10;stroke-dasharray:none;stroke-opacity:1"
       d="m 814.29521,658.31316 c -6.372,0 -6.372,9 -12.744,9 -6.372,0 -6.372,-9 -12.746,-9 -6.373,0 -6.373,9 -12.745,9 -6.375,0 -6.375,-9 -12.749,-9 -6.376,0 -6.376,9 -12.752,9 -6.374,0 -6.374,-9 -12.749,-9 -6.379,0 -6.379,9 -12.758,9 -6.378,0 -6.378,-9 -12.757,-9" /><path
       inkscape:connector-curvature="0"
       id="path200"
       style="fill:none;stroke:#064a1e;stroke-width:4;stroke-linecap:butt;stroke-linejoin:round;stroke-miterlimit:10;stroke-dasharray:none;stroke-opacity:1"
       d="m 820.79521,697.56416 v 20.342 c 0,6.441 -4.734,10.658 -11.174,10.658 h -19.44 c -6.441,0 -12.386,-4.217 -12.386,-10.658 v -20.342" /><path
       inkscape:connector-curvature="0"
       id="path202"
       style="fill:none;stroke:#064a1e;stroke-width:4.5;stroke-linecap:butt;stroke-linejoin:round;stroke-miterlimit:10;stroke-dasharray:none;stroke-opacity:1"
       d="m 794.06821,729.57016 5.833,-15.552 5.832,15.552" /><path
       inkscape:connector-curvature="0"
       id="path204"
       style="fill:none;stroke:#064a1e;stroke-width:4;stroke-linecap:butt;stroke-linejoin:round;stroke-miterlimit:10;stroke-dasharray:none;stroke-opacity:1"
       d="m 798.79521,709.56416 v -4" /><path
       inkscape:connector-curvature="0"
       id="path206"
       style="fill:none;stroke:#064a1e;stroke-width:4;stroke-linecap:butt;stroke-linejoin:round;stroke-miterlimit:10;stroke-dasharray:none;stroke-opacity:1"
       d="m 798.79521,702.56416 v -5" /><path
       inkscape:connector-curvature="0"
       id="path208"
       style="fill:none;stroke:#064a1e;stroke-width:4;stroke-linecap:butt;stroke-linejoin:round;stroke-miterlimit:10;stroke-dasharray:none;stroke-opacity:1"
       d="m 809.79521,747.78716 c 0,4.295 -3.481,7.777 -7.775,7.777 h -4.45 c -4.294,0 -7.775,-3.482 -7.775,-7.777 v -5.447 c 0,-4.295 3.481,-7.776 7.775,-7.776 h 4.45 c 4.294,0 7.775,3.481 7.775,7.776 z" /><path
       inkscape:connector-curvature="0"
       id="path210"
       style="fill:none;stroke:#064a1e;stroke-width:4;stroke-linecap:butt;stroke-linejoin:round;stroke-miterlimit:10;stroke-dasharray:none;stroke-opacity:1"
       d="m 786.79521,697.56416 v 14" /><path
       inkscape:connector-curvature="0"
       id="path212"
       style="fill:none;stroke:#064a1e;stroke-width:4;stroke-linecap:butt;stroke-linejoin:round;stroke-miterlimit:10;stroke-dasharray:none;stroke-opacity:1"
       d="m 810.79521,697.56416 v 14" /><path
       inkscape:connector-curvature="0"
       id="path214"
       style="fill:none;stroke:#064a1e;stroke-width:4;stroke-linecap:butt;stroke-linejoin:round;stroke-miterlimit:10;stroke-dasharray:none;stroke-opacity:1"
       d="m 855.79521,697.56416 v 20.342 c 0,6.441 -4.741,10.658 -11.184,10.658 h -19.816" /><path
       inkscape:connector-curvature="0"
       id="path216"
       style="fill:none;stroke:#064a1e;stroke-width:4.5;stroke-linecap:butt;stroke-linejoin:round;stroke-miterlimit:10;stroke-dasharray:none;stroke-opacity:1"
       d="m 829.06121,729.57016 5.831,-15.552 5.832,15.552" /><path
       inkscape:connector-curvature="0"
       id="path218"
       style="fill:none;stroke:#064a1e;stroke-width:4;stroke-linecap:butt;stroke-linejoin:round;stroke-miterlimit:10;stroke-dasharray:none;stroke-opacity:1"
       d="m 834.79521,709.56416 v -4" /><path
       inkscape:connector-curvature="0"
       id="path220"
       style="fill:none;stroke:#064a1e;stroke-width:4;stroke-linecap:butt;stroke-linejoin:round;stroke-miterlimit:10;stroke-dasharray:none;stroke-opacity:1"
       d="m 834.79521,702.56416 v -5" /><path
       inkscape:connector-curvature="0"
       id="path222"
       style="fill:none;stroke:#064a1e;stroke-width:4;stroke-linecap:butt;stroke-linejoin:round;stroke-miterlimit:10;stroke-dasharray:none;stroke-opacity:1"
       d="m 843.79521,747.78716 c 0,4.295 -3.481,7.777 -7.775,7.777 h -4.45 c -4.294,0 -7.775,-3.482 -7.775,-7.777 v -5.447 c 0,-4.295 3.481,-7.776 7.775,-7.776 h 4.45 c 4.294,0 7.775,3.481 7.775,7.776 z" /><path
       inkscape:connector-curvature="0"
       id="path224"
       style="fill:none;stroke:#064a1e;stroke-width:4;stroke-linecap:butt;stroke-linejoin:round;stroke-miterlimit:10;stroke-dasharray:none;stroke-opacity:1"
       d="m 844.79521,697.56416 v 14" /><path
       inkscape:connector-curvature="0"
       id="path226"
       style="fill:none;stroke:#064a1e;stroke-width:4;stroke-linecap:butt;stroke-linejoin:round;stroke-miterlimit:10;stroke-dasharray:none;stroke-opacity:1"
       d="m 889.79521,697.56416 v 20.342 c 0,6.441 -3.751,10.658 -10.191,10.658 h -18.809" /><path
       inkscape:connector-curvature="0"
       id="path228"
       style="fill:none;stroke:#064a1e;stroke-width:4.5;stroke-linecap:butt;stroke-linejoin:round;stroke-miterlimit:10;stroke-dasharray:none;stroke-opacity:1"
       d="m 864.05121,729.57016 5.833,-15.552 5.832,15.552" /><path
       inkscape:connector-curvature="0"
       id="path230"
       style="fill:none;stroke:#064a1e;stroke-width:4;stroke-linecap:butt;stroke-linejoin:round;stroke-miterlimit:10;stroke-dasharray:none;stroke-opacity:1"
       d="m 868.79521,709.56416 v -4" /><path
       inkscape:connector-curvature="0"
       id="path232"
       style="fill:none;stroke:#064a1e;stroke-width:4;stroke-linecap:butt;stroke-linejoin:round;stroke-miterlimit:10;stroke-dasharray:none;stroke-opacity:1"
       d="m 868.79521,702.56416 v -5" /><path
       inkscape:connector-curvature="0"
       id="path234"
       style="fill:none;stroke:#064a1e;stroke-width:4;stroke-linecap:butt;stroke-linejoin:round;stroke-miterlimit:10;stroke-dasharray:none;stroke-opacity:1"
       d="m 878.79521,747.78716 c 0,4.295 -3.481,7.777 -7.775,7.777 h -4.45 c -4.294,0 -7.775,-3.482 -7.775,-7.777 v -5.447 c 0,-4.295 3.481,-7.776 7.775,-7.776 h 4.45 c 4.294,0 7.775,3.481 7.775,7.776 z" /><path
       inkscape:connector-curvature="0"
       id="path236"
       style="fill:none;stroke:#064a1e;stroke-width:4;stroke-linecap:butt;stroke-linejoin:round;stroke-miterlimit:10;stroke-dasharray:none;stroke-opacity:1"
       d="m 880.79521,697.56416 v 14" /><path
       inkscape:connector-curvature="0"
       id="path238"
       style="fill:none;stroke:#064a1e;stroke-width:4.5;stroke-linecap:butt;stroke-linejoin:round;stroke-miterlimit:10;stroke-dasharray:none;stroke-opacity:1"
       d="m 1222.6552,627.67816 c -40.91,-40.914 -107.25,-40.913 -148.164,0.002" /><path
       inkscape:connector-curvature="0"
       id="path242"
       style="fill:none;stroke:#064a1e;stroke-width:4;stroke-linecap:butt;stroke-linejoin:round;stroke-miterlimit:10;stroke-dasharray:none;stroke-opacity:1"
       d="m 778.90321,853.56416 h 8.892 v 18 h -8.892 c -0.095,0 -2.067,5.972 -2.213,6.242 l 8.025,8.386 -13.917,13.923 -8.348,-7.758 c -0.271,0.14 -5.655,2.206 -5.655,2.296 v 9.911 h -18 v -9.911 c 0,-0.09 -5.574,-2.029 -5.845,-2.169 l -8.285,7.882 -14.044,-13.671 7.959,-8.889 c -0.142,-0.27 -2.178,-6.242 -2.273,-6.242 h -10.512 v -18 h 10.512 c 0.095,0 2.064,-4.634 2.209,-4.901 l -8.026,-7.715 13.918,-13.589 8.542,7.927 c 0.271,-0.14 5.845,-2.038 5.845,-2.128 v -11.594 h 18 v 11.594 c 0,0.09 5.384,2.029 5.655,2.17 l 8.188,-7.884 13.996,13.672 -7.985,7.547 c 0.147,0.267 2.159,4.901 2.254,4.901 z" /><path
       inkscape:connector-curvature="0"
       id="path244"
       style="fill:none;stroke:#064a1e;stroke-width:4;stroke-linecap:butt;stroke-linejoin:round;stroke-miterlimit:10;stroke-dasharray:none;stroke-opacity:1"
       d="m 768.79521,843.56416 v 9.412 c 0,6.035 -5.299,9.588 -11.334,9.588 h -18.217 c -6.035,0 -11.449,-3.553 -11.449,-9.588 v -9.412" /><path
       inkscape:connector-curvature="0"
       id="path246"
       style="fill:none;stroke:#064a1e;stroke-width:4;stroke-linecap:butt;stroke-linejoin:round;stroke-miterlimit:10;stroke-dasharray:none;stroke-opacity:1"
       d="m 756.79521,880.27716 c 0,4.024 -3.262,7.287 -7.286,7.287 h -3.428 c -4.024,0 -7.286,-3.263 -7.286,-7.287 v -5.427 c 0,-4.024 3.262,-7.286 7.286,-7.286 h 3.428 c 4.024,0 7.286,3.262 7.286,7.286 z" /><path
       inkscape:connector-curvature="0"
       id="path248"
       style="fill:none;stroke:#064a1e;stroke-width:4;stroke-linecap:butt;stroke-linejoin:round;stroke-miterlimit:10;stroke-dasharray:none;stroke-opacity:1"
       d="m 736.79521,840.56416 v 6" /><path
       inkscape:connector-curvature="0"
       id="path250"
       style="fill:none;stroke:#064a1e;stroke-width:4;stroke-linecap:butt;stroke-linejoin:round;stroke-miterlimit:10;stroke-dasharray:none;stroke-opacity:1"
       d="m 757.79521,840.56416 v 6" /><path
       inkscape:connector-curvature="0"
       id="path252"
       style="fill:#ffffff;fill-opacity:1;fill-rule:nonzero;stroke:#064a1e;stroke-width:0.1;stroke-opacity:1"
       d="m 1211.8552,799.63416 -5.47,10.93 h 10.93 z" /><path
       inkscape:connector-curvature="0"
       id="path254"
       style="fill:none;stroke:#064a1e;stroke-width:4;stroke-linecap:butt;stroke-linejoin:round;stroke-miterlimit:10;stroke-dasharray:none;stroke-opacity:1"
       d="m 1242.4052,802.56416 h 9.39 v 18 h -9.39 c -0.1,0 -2.07,5.973 -2.22,6.242 l 8.03,8.386 -13.92,13.923 -8.59,-7.758 c -0.28,0.14 -5.91,2.206 -5.91,2.296 v 9.911 h -18 v -9.911 c 0,-0.09 -5.32,-2.029 -5.6,-2.169 l -8.16,7.882 -13.98,-13.671 7.99,-8.889 c -0.14,-0.269 -2.14,-6.242 -2.24,-6.242 h -11.01 v -18 h 11.01 c 0.1,0 2.07,-4.634 2.21,-4.901 l -8.02,-7.715 13.91,-13.589 8.29,7.927 c 0.28,-0.14 5.6,-2.038 5.6,-2.128 v -11.594 h 18 v 11.594 c 0,0.09 5.63,2.029 5.91,2.17 l 8.31,-7.884 14.06,13.672 -7.96,7.547 c 0.15,0.267 2.19,4.901 2.29,4.901 z" /><path
       inkscape:connector-curvature="0"
       id="path256"
       style="fill:none;stroke:#064a1e;stroke-width:4;stroke-linecap:butt;stroke-linejoin:round;stroke-miterlimit:10;stroke-dasharray:none;stroke-opacity:1"
       d="m 1231.7952,792.56416 v 9.412 c 0,6.035 -4.8,9.588 -10.83,9.588 h -18.22 c -6.04,0 -10.95,-3.553 -10.95,-9.588 v -9.412" /><path
       inkscape:connector-curvature="0"
       id="path258"
       style="fill:none;stroke:#064a1e;stroke-width:4;stroke-linecap:butt;stroke-linejoin:round;stroke-miterlimit:10;stroke-dasharray:none;stroke-opacity:1"
       d="m 1219.7952,829.27716 c 0,4.024 -3.26,7.287 -7.29,7.287 h -3.42 c -4.03,0 -7.29,-3.263 -7.29,-7.287 v -5.427 c 0,-4.024 3.26,-7.286 7.29,-7.286 h 3.42 c 4.03,0 7.29,3.262 7.29,7.286 z" /><path
       inkscape:connector-curvature="0"
       id="path260"
       style="fill:none;stroke:#064a1e;stroke-width:4;stroke-linecap:butt;stroke-linejoin:round;stroke-miterlimit:10;stroke-dasharray:none;stroke-opacity:1"
       d="m 1200.7952,789.56416 v 6" /><path
       inkscape:connector-curvature="0"
       id="path262"
       style="fill:none;stroke:#064a1e;stroke-width:4;stroke-linecap:butt;stroke-linejoin:round;stroke-miterlimit:10;stroke-dasharray:none;stroke-opacity:1"
       d="m 1221.7952,789.56416 v 6" /><path
       inkscape:connector-curvature="0"
       id="path264"
       style="fill:#ffffff;fill-opacity:1;fill-rule:nonzero;stroke:none;stroke-width:0.1"
       d="m 326.85221,674.63416 -5.465,10.93 h 10.931 z" /><path
       inkscape:connector-curvature="0"
       id="path266"
       style="fill:none;stroke:#064a1e;stroke-width:4;stroke-linecap:butt;stroke-linejoin:round;stroke-miterlimit:10;stroke-dasharray:none;stroke-opacity:1"
       d="m 357.40321,677.56416 h 9.392 v 18 h -9.392 c -0.095,0 -2.067,6.222 -2.213,6.492 l 8.026,8.511 -13.918,13.985 -8.598,-7.726 c -0.271,0.14 -5.905,2.237 -5.905,2.327 v 9.411 h -18 v -9.411 c 0,-0.09 -5.324,-2.029 -5.595,-2.169 l -8.16,7.882 -13.981,-13.671 7.99,-9.139 c -0.142,-0.27 -2.146,-6.492 -2.242,-6.492 h -11.012 v -18 h 11.012 c 0.096,0 2.064,-4.384 2.209,-4.651 l -8.025,-7.59 13.917,-13.526 8.292,7.958 c 0.271,-0.14 5.595,-2.007 5.595,-2.097 v -11.094 h 18 v 11.094 c 0,0.09 5.634,2.029 5.905,2.17 l 8.313,-7.884 14.059,13.672 -7.954,7.297 c 0.147,0.267 2.19,4.651 2.285,4.651 z" /><path
       inkscape:connector-curvature="0"
       id="path268"
       style="fill:none;stroke:#064a1e;stroke-width:3.9997501;stroke-linecap:butt;stroke-linejoin:round;stroke-miterlimit:10;stroke-dasharray:none;stroke-opacity:1"
       d="m 346.79521,667.56416 v 9.912 c 0,6.035 -4.799,9.088 -10.834,9.088 h -18.217 c -6.035,0 -10.949,-3.053 -10.949,-9.088 v -9.912" /><path
       inkscape:connector-curvature="0"
       id="path270"
       style="fill:none;stroke:#064a1e;stroke-width:4;stroke-linecap:butt;stroke-linejoin:round;stroke-miterlimit:10;stroke-dasharray:none;stroke-opacity:1"
       d="m 334.79521,705.27716 c 0,4.024 -3.262,7.287 -7.286,7.287 h -3.428 c -4.024,0 -7.286,-3.263 -7.286,-7.287 v -5.427 c 0,-4.024 3.262,-7.286 7.286,-7.286 h 3.428 c 4.024,0 7.286,3.262 7.286,7.286 z" /><path
       inkscape:connector-curvature="0"
       id="path272"
       style="fill:none;stroke:#064a1e;stroke-width:4;stroke-linecap:butt;stroke-linejoin:round;stroke-miterlimit:10;stroke-dasharray:none;stroke-opacity:1"
       d="m 315.79521,664.56416 v 6" /><path
       inkscape:connector-curvature="0"
       id="path274"
       style="fill:none;stroke:#064a1e;stroke-width:4;stroke-linecap:butt;stroke-linejoin:round;stroke-miterlimit:10;stroke-dasharray:none;stroke-opacity:1"
       d="m 336.79521,664.56416 v 6" /><path
       inkscape:connector-curvature="0"
       id="path276"
       style="fill:none;stroke:#196b30;stroke-width:4;stroke-linecap:butt;stroke-linejoin:round;stroke-miterlimit:10;stroke-dasharray:none;stroke-opacity:1"
       d="m 1229.7952,697.56416 h -58.5 l -18.087,40 h -19.413" /><path
       inkscape:connector-curvature="0"
       id="path278"
       style="fill:none;stroke:#064a1e;stroke-width:4;stroke-linecap:butt;stroke-linejoin:round;stroke-miterlimit:10;stroke-dasharray:none;stroke-opacity:1"
       d="m 1062.7952,697.56416 v 39 h -82.99999 v 19 h 73.99999 v 40" /><path
       inkscape:connector-curvature="0"
       id="path280"
       style="fill:none;stroke:#064a1e;stroke-width:4;stroke-linecap:butt;stroke-linejoin:round;stroke-miterlimit:10;stroke-dasharray:none;stroke-opacity:1"
       d="m 756.56121,782.66016 c 0,0 -2.663,-21.627 -23.336,-33.664 l 30.545,-50.432 h -57.975" /><path
       inkscape:connector-curvature="0"
       id="path282"
       style="fill:none;stroke:#064a1e;stroke-width:4;stroke-linecap:butt;stroke-linejoin:round;stroke-miterlimit:10;stroke-dasharray:none;stroke-opacity:1"
       d="m 516.93221,802.95216 15.694,-45.388 h -31.831" /><path
       inkscape:connector-curvature="0"
       id="path284"
       style="fill:none;stroke:#064a1e;stroke-width:4.5;stroke-linecap:butt;stroke-linejoin:round;stroke-miterlimit:10;stroke-dasharray:none;stroke-opacity:1"
       d="m 286.08821,802.70116 c 0,0 23.506,70.263 106.982,47.937" /><path
       inkscape:connector-curvature="0"
       id="path286"
       style="fill:none;stroke:#064a1e;stroke-width:4;stroke-linecap:butt;stroke-linejoin:round;stroke-miterlimit:10;stroke-dasharray:none;stroke-opacity:1"
       d="m 460.79521,763.56416 v -29.501 c 0,-1.657 -0.457,-3.499 -2.256,-3.499 h -50.486 c -1.799,0 -4.258,1.842 -4.258,3.499 v 29.501 z" /><path
       inkscape:connector-curvature="0"
       id="path288"
       style="fill:none;stroke:#064a1e;stroke-width:4;stroke-linecap:butt;stroke-linejoin:round;stroke-miterlimit:10;stroke-dasharray:none;stroke-opacity:1"
       d="m 457.79521,681.56416 v 13.499 c 0,1.657 -0.305,2.501 -1.915,2.501 h -16.085 v 33 h -15 v -33 h -14.085 c -1.61,0 -3.915,-0.844 -3.915,-2.501 v -13.499" /><path
       inkscape:connector-curvature="0"
       id="path290"
       style="fill:none;stroke:#064a1e;stroke-width:4;stroke-linecap:butt;stroke-linejoin:round;stroke-miterlimit:10;stroke-dasharray:none;stroke-opacity:1"
       d="m 461.79521,739.56416 h 9 c 1.657,0 2,1.842 2,3.499 v 20.501 h -11" /><path
       inkscape:connector-curvature="0"
       id="path292"
       style="fill:none;stroke:#064a1e;stroke-width:4;stroke-linecap:butt;stroke-linejoin:round;stroke-miterlimit:10;stroke-dasharray:none;stroke-opacity:1"
       d="m 404.79521,739.56416 h -9 c -1.657,0 -4,1.842 -4,3.499 v 20.501 h 13" /><path
       inkscape:connector-curvature="0"
       id="path294"
       style="fill:#064a1e;stroke:#064a1e;stroke-width:4;stroke-linecap:butt;stroke-linejoin:round;stroke-miterlimit:10;stroke-dasharray:none;stroke-opacity:1;fill-opacity:1"
       d="m 425.79521,697.56416 h 7" /><path
       inkscape:connector-curvature="0"
       id="path296"
       style="fill:none;stroke:#064a1e;stroke-width:4;stroke-linecap:butt;stroke-linejoin:round;stroke-miterlimit:10;stroke-dasharray:none;stroke-opacity:1"
       d="m 412.79521,759.56416 v -15" /><path
       inkscape:connector-curvature="0"
       id="path298"
       style="fill:none;stroke:#064a1e;stroke-width:4;stroke-linecap:butt;stroke-linejoin:round;stroke-miterlimit:10;stroke-dasharray:none;stroke-opacity:1"
       d="m 412.79521,742.56416 v -4" /><path
       inkscape:connector-curvature="0"
       id="path300"
       style="fill:#ffffff;fill-opacity:1;fill-rule:nonzero;stroke:none;stroke-width:0.1"
       d="m 462.79521,672.56416 h -63 v 9 h 63 v -9" /><path
       inkscape:connector-curvature="0"
       id="path302"
       style="fill:none;stroke:#064a1e;stroke-width:4;stroke-linecap:butt;stroke-linejoin:round;stroke-miterlimit:10;stroke-dasharray:none;stroke-opacity:1"
       d="m 928.79521,697.56416 v 107" /><path
       inkscape:connector-curvature="0"
       id="path304"
       style="fill:none;stroke:#064a1e;stroke-width:4;stroke-linecap:butt;stroke-linejoin:round;stroke-miterlimit:10;stroke-dasharray:none;stroke-opacity:1"
       d="m 928.79521,772.56416 h -48 v 33 h 48 z" /><path
       inkscape:connector-curvature="0"
       id="path306"
       style="fill:none;stroke:#064a1e;stroke-width:4;stroke-linecap:butt;stroke-linejoin:round;stroke-miterlimit:10;stroke-dasharray:none;stroke-opacity:1"
       d="m 917.79521,697.56416 h 45" /><path
       inkscape:connector-curvature="0"
       id="path308"
       style="fill:none;stroke:#064a1e;stroke-width:4.5;stroke-linecap:butt;stroke-linejoin:round;stroke-miterlimit:10;stroke-dasharray:none;stroke-opacity:1"
       d="m 571.02321,809.19916 c 0,-3.651 -2.962,-6.613 -6.614,-6.613 -3.652,0 -6.614,2.962 -6.614,6.613 0,3.653 2.962,6.614 6.614,6.614 3.652,0 6.614,-2.961 6.614,-6.614 z" /><path
       inkscape:connector-curvature="0"
       id="path310"
       style="fill:none;stroke:#064a1e;stroke-width:4.5;stroke-linecap:butt;stroke-linejoin:round;stroke-miterlimit:10;stroke-dasharray:none;stroke-opacity:1"
       d="m 593.69521,809.19916 c 0,-3.651 -2.96,-6.613 -6.612,-6.613 -3.653,0 -6.614,2.962 -6.614,6.613 0,3.653 2.961,6.614 6.614,6.614 3.652,0 6.612,-2.961 6.612,-6.614 z" /><path
       inkscape:connector-curvature="0"
       id="path312"
       style="fill:none;stroke:#064a1e;stroke-width:4.5;stroke-linecap:butt;stroke-linejoin:round;stroke-miterlimit:10;stroke-dasharray:none;stroke-opacity:1"
       d="m 616.37121,809.19916 c 0,-3.651 -2.962,-6.613 -6.614,-6.613 -3.651,0 -6.613,2.962 -6.613,6.613 0,3.653 2.962,6.614 6.613,6.614 3.652,0 6.614,-2.961 6.614,-6.614 z" /><path
       inkscape:connector-curvature="0"
       id="path314"
       style="fill:none;stroke:#064a1e;stroke-width:4.5;stroke-linecap:butt;stroke-linejoin:round;stroke-miterlimit:10;stroke-dasharray:none;stroke-opacity:1"
       d="m 1058.5222,672.69916 c 0,-3.651 -2.961,-6.613 -6.613,-6.613 -3.652,0 -6.614,2.962 -6.614,6.613 0,3.653 2.962,6.614 6.614,6.614 3.652,0 6.613,-2.961 6.613,-6.614 z" /><path
       inkscape:connector-curvature="0"
       id="path316"
       style="fill:none;stroke:#064a1e;stroke-width:4.5;stroke-linecap:butt;stroke-linejoin:round;stroke-miterlimit:10;stroke-dasharray:none;stroke-opacity:1"
       d="m 1081.1952,672.69916 c 0,-3.651 -2.96,-6.613 -6.612,-6.613 -3.653,0 -6.614,2.962 -6.614,6.613 0,3.653 2.961,6.614 6.614,6.614 3.652,0 6.612,-2.961 6.612,-6.614 z" /><path
       inkscape:connector-curvature="0"
       id="path318"
       style="fill:none;stroke:#064a1e;stroke-width:4.5;stroke-linecap:butt;stroke-linejoin:round;stroke-miterlimit:10;stroke-dasharray:none;stroke-opacity:1"
       d="m 1103.8712,672.69916 c 0,-3.651 -2.962,-6.613 -6.614,-6.613 -3.652,0 -6.614,2.962 -6.614,6.613 0,3.653 2.962,6.614 6.614,6.614 3.652,0 6.614,-2.961 6.614,-6.614 z" /><path
       inkscape:connector-curvature="0"
       id="path320"
       style="fill:none;stroke:#064a1e;stroke-width:4.5;stroke-linecap:butt;stroke-linejoin:round;stroke-miterlimit:10;stroke-dasharray:none;stroke-opacity:1"
       d="m 1195.0252,902.19916 c 0,-3.651 -2.96,-6.613 -6.62,-6.613 -3.65,0 -6.61,2.962 -6.61,6.613 0,3.653 2.96,6.614 6.61,6.614 3.66,0 6.62,-2.961 6.62,-6.614 z" /><path
       inkscape:connector-curvature="0"
       id="path322"
       style="fill:none;stroke:#064a1e;stroke-width:4.5;stroke-linecap:butt;stroke-linejoin:round;stroke-miterlimit:10;stroke-dasharray:none;stroke-opacity:1"
       d="m 1217.6952,902.19916 c 0,-3.651 -2.96,-6.613 -6.61,-6.613 -3.66,0 -6.62,2.962 -6.62,6.613 0,3.653 2.96,6.614 6.62,6.614 3.65,0 6.61,-2.961 6.61,-6.614 z" /><path
       inkscape:connector-curvature="0"
       id="path324"
       style="fill:none;stroke:#064a1e;stroke-width:4.5;stroke-linecap:butt;stroke-linejoin:round;stroke-miterlimit:10;stroke-dasharray:none;stroke-opacity:1"
       d="m 1240.3752,902.19916 c 0,-3.651 -2.97,-6.613 -6.62,-6.613 -3.65,0 -6.61,2.962 -6.61,6.613 0,3.653 2.96,6.614 6.61,6.614 3.65,0 6.62,-2.961 6.62,-6.614 z" /><path
       inkscape:connector-curvature="0"
       id="path326"
       style="fill:none;stroke:#064a1e;stroke-width:4.5;stroke-linecap:butt;stroke-linejoin:round;stroke-miterlimit:10;stroke-dasharray:none;stroke-opacity:1"
       d="m 260.52321,770.19916 c 0,-3.651 -2.962,-6.613 -6.6139,-6.613 -3.652,0 -6.6137,2.962 -6.6137,6.613 0,3.653 2.9617,6.614 6.6137,6.614 3.6519,0 6.6139,-2.961 6.6139,-6.614 z" /><path
       inkscape:connector-curvature="0"
       id="path328"
       style="fill:none;stroke:#064a1e;stroke-width:4.5;stroke-linecap:butt;stroke-linejoin:round;stroke-miterlimit:10;stroke-dasharray:none;stroke-opacity:1"
       d="m 283.19621,770.19916 c 0,-3.651 -2.961,-6.613 -6.613,-6.613 -3.653,0 -6.613,2.962 -6.613,6.613 0,3.653 2.96,6.614 6.613,6.614 3.652,0 6.613,-2.961 6.613,-6.614 z" /><path
       inkscape:connector-curvature="0"
       id="path330"
       style="fill:none;stroke:#064a1e;stroke-width:4.5;stroke-linecap:butt;stroke-linejoin:round;stroke-miterlimit:10;stroke-dasharray:none;stroke-opacity:1"
       d="m 305.87121,770.19916 c 0,-3.651 -2.961,-6.613 -6.613,-6.613 -3.652,0 -6.614,2.962 -6.614,6.613 0,3.653 2.962,6.614 6.614,6.614 3.652,0 6.613,-2.961 6.613,-6.614 z" /></g></svg>