<?xml version="1.0" encoding="UTF-8" standalone="no"?>
<svg
   xmlns:dc="http://purl.org/dc/elements/1.1/"
   xmlns:cc="http://creativecommons.org/ns#"
   xmlns:rdf="http://www.w3.org/1999/02/22-rdf-syntax-ns#"
   xmlns:svg="http://www.w3.org/2000/svg"
   xmlns="http://www.w3.org/2000/svg"
   id="svg2196"
   version="1.1"
   viewBox="0 0 7.9375 7.9374999"
   height="7.9375mm"
   width="7.9375mm">
  <defs
     id="defs2190" />
  <metadata
     id="metadata2193">
    <rdf:RDF>
      <cc:Work
         rdf:about="">
        <dc:format>image/svg+xml</dc:format>
        <dc:type
           rdf:resource="http://purl.org/dc/dcmitype/StillImage" />
        <dc:title></dc:title>
      </cc:Work>
    </rdf:RDF>
  </metadata>
  <g
     transform="translate(-20.282211,-181.33052)"
     id="layer1">
    <rect
       style="opacity:1;fill:#ffffff;fill-opacity:1;stroke:none;stroke-width:1.58749998;stroke-linecap:round;stroke-linejoin:round;stroke-miterlimit:4;stroke-dasharray:none;stroke-opacity:1;paint-order:stroke fill markers"
       id="rect1291"
       width="7.9375"
       height="7.9375"
       x="20.282211"
       y="181.33052" />
    <path
       id="path1293"
       d="m 25.052472,183.50531 c -0.46036,0 -0.84129,0.39738 -0.84129,0.90538 0,0.0635 -3.71e-4,0.14268 0.0155,0.20618 -0.698479,-0.0318 -1.316869,-0.39716 -1.729609,-0.93689 -0.0794,0.12699 -0.11162,0.28633 -0.11162,0.46096 0,0.31748 0.14311,0.58745 0.36535,0.7462 -0.14287,0 -0.26973,-0.0481 -0.38085,-0.11162 v 0.0155 c 0,0.42861 0.28564,0.79406 0.66662,0.88935 -0.0635,0.0159 -0.14335,0.0315 -0.22272,0.0315 -0.0476,0 -0.11103,-1.2e-4 -0.15865,-0.016 0.11113,0.36511 0.41314,0.61961 0.77825,0.61961 -0.28574,0.23812 -0.65099,0.38085 -1.03198,0.38085 -0.0635,0 -0.12682,-1.2e-4 -0.20619,-0.016 0.36512,0.25399 0.80948,0.4129 1.28571,0.4129 1.53983,0 2.38125,-1.36534 2.38125,-2.55592 v -0.1111 c 0.1905,-0.15874 0.3333,-0.31748 0.44442,-0.50798 -0.14287,0.0793 -0.31771,0.12724 -0.47646,0.14314 0.17462,-0.11113 0.30185,-0.28559 0.36535,-0.49196 -0.15874,0.0953 -0.33365,0.17409 -0.54001,0.22169 -0.15875,-0.17462 -0.36495,-0.28577 -0.60307,-0.28577 z"
       style="display:inline;opacity:1;fill:#0fcd52;fill-opacity:1;stroke:none;stroke-width:0.31748974;stroke-linecap:round;stroke-linejoin:round;stroke-miterlimit:4;stroke-dasharray:none;stroke-opacity:1" />
  </g>
</svg>
