<?xml version="1.0" encoding="UTF-8" standalone="no"?>
<svg
   xmlns:dc="http://purl.org/dc/elements/1.1/"
   xmlns:cc="http://creativecommons.org/ns#"
   xmlns:rdf="http://www.w3.org/1999/02/22-rdf-syntax-ns#"
   xmlns:svg="http://www.w3.org/2000/svg"
   xmlns="http://www.w3.org/2000/svg"
   viewBox="0 0 1868.0933 1306.6667"
   height="1306.6667"
   width="1868.0933"
   xml:space="preserve"
   id="svg2"
   version="1.1"><metadata
     id="metadata8"><rdf:RDF><cc:Work
         rdf:about=""><dc:format>image/svg+xml</dc:format><dc:type
           rdf:resource="http://purl.org/dc/dcmitype/StillImage" /><dc:title></dc:title></cc:Work></rdf:RDF></metadata><defs
     id="defs6"><clipPath
       id="clipPath20"
       clipPathUnits="userSpaceOnUse"><path
         id="path18"
         d="M 14003.7,0 H 3.74609 V 9800 H 14003.7 Z" /></clipPath><linearGradient
       id="linearGradient26"
       spreadMethod="pad"
       gradientTransform="matrix(4e-7,9800,9800,-4e-7,7003.75,0)"
       gradientUnits="userSpaceOnUse"
       y2="0"
       x2="1"
       y1="0"
       x1="0"><stop
         id="stop22"
         offset="0"
         style="stop-opacity:1;stop-color:#ffffff" /><stop
         id="stop24"
         offset="1"
         style="stop-opacity:1;stop-color:#5db2e6" /></linearGradient></defs><g
     transform="matrix(1.3333333,0,0,-1.3333333,0,1306.6667)"
     id="g10"><g
       transform="scale(0.1)"
       id="g12"><g
         id="g14"><g
           clip-path="url(#clipPath20)"
           id="g16"><path
             id="path28"
             style="fill:url(#linearGradient26);fill-opacity:1;fill-rule:nonzero;stroke:none"
             d="M 14003.7,0 H 3.74609 V 9800 H 14003.7 V 0" /></g></g><path
         id="path30"
         style="fill:#ffffff;fill-opacity:1;fill-rule:nonzero;stroke:none"
         d="m 287.066,7150.3 c -8.687,-19.92 -13.32,-40.81 -13.32,-62.35 0,-137.25 187.875,-248.53 419.637,-248.53 25.195,0 49.832,1.39 73.805,3.91 5.359,-204.24 286.402,-368.86 632.492,-368.86 105.41,0 204.71,15.35 292.12,42.36 66.71,-84.96 212.01,-143.9 380.64,-143.9 148.36,0 278.64,45.64 353.26,114.47 176.63,-48.34 373.29,-75.36 580.64,-75.36 765.46,0 1019.62,367.53 1019.62,820.89 0,453.38 -254.16,820.91 -1019.62,820.91 -164.29,0 -321.87,-16.98 -468.11,-48.05 32.82,35.43 51.52,76.1 51.52,119.36 0,137.28 -187.88,248.55 -419.64,248.55 -231.76,0 -419.63,-111.27 -419.63,-248.55 0,-28.37 8.13,-55.59 22.9,-80.99 -258.44,-7.32 -476.19,-106.49 -562.35,-243.61 -84.29,19.11 -175.71,29.68 -271.35,29.68 -419.45,0 -759.489,-201.4 -759.489,-449.84 0,-84.09 39.063,-162.76 106.875,-230.09" /><path
         id="path32"
         style="fill:#ffffff;fill-opacity:1;fill-rule:nonzero;stroke:none"
         d="m 1221.56,8116.6 c 39.32,0 71.2,49.81 71.2,111.26 0,61.46 -31.88,111.27 -71.2,111.27 -39.33,0 -71.2,-49.81 -71.2,-111.27 0,-61.45 31.87,-111.26 71.2,-111.26" /><path
         id="path34"
         style="fill:#ffffff;fill-opacity:1;fill-rule:nonzero;stroke:none"
         d="m 625.191,7932.23 c 171.278,0 310.114,86.37 310.114,192.92 0,106.57 -138.836,192.95 -310.114,192.95 -171.265,0 -310.097,-86.38 -310.097,-192.95 0,-106.55 138.832,-192.92 310.097,-192.92" /><path
         id="path36"
         style="fill:#ffffff;fill-opacity:1;fill-rule:nonzero;stroke:none"
         d="m 9509.54,5589.24 c 0,-369.78 -299.76,-669.52 -669.52,-669.52 -369.77,0 -669.52,299.74 -669.52,669.52 0,369.76 299.75,669.51 669.52,669.51 369.76,0 669.52,-299.75 669.52,-669.51" /><path
         id="path38"
         style="fill:#ffffff;fill-opacity:1;fill-rule:nonzero;stroke:none"
         d="m 9123.67,6195.65 c 0,-291.7 -236.43,-528.14 -528.11,-528.14 -291.68,0 -528.11,236.44 -528.11,528.14 0,291.64 236.43,528.08 528.11,528.08 291.68,0 528.11,-236.44 528.11,-528.08" /><path
         id="path40"
         style="fill:#ffffff;fill-opacity:1;fill-rule:nonzero;stroke:none"
         d="m 8578.15,6487.08 c 0,-254.72 -206.5,-461.22 -461.23,-461.22 -254.72,0 -461.22,206.5 -461.22,461.22 0,254.74 206.5,461.23 461.22,461.23 254.73,0 461.23,-206.49 461.23,-461.23" /><path
         id="path42"
         style="fill:#ffffff;fill-opacity:1;fill-rule:nonzero;stroke:none"
         d="m 13859,5046.41 c 0,-444.16 -360.1,-804.24 -804.3,-804.24 -444.1,0 -804.2,360.08 -804.2,804.24 0,444.17 360.1,804.23 804.2,804.23 444.2,0 804.3,-360.06 804.3,-804.23" /><path
         id="path44"
         style="fill:#ffffff;fill-opacity:1;fill-rule:nonzero;stroke:none"
         d="m 12464.2,5598.65 c 0,-578.28 -468.8,-1047.08 -1047.1,-1047.08 -578.2,0 -1047,468.8 -1047,1047.08 0,578.29 468.8,1047.07 1047,1047.07 578.3,0 1047.1,-468.78 1047.1,-1047.07" /><path
         id="path46"
         style="fill:#709a99;fill-opacity:1;fill-rule:nonzero;stroke:none"
         d="m 14010.7,5003.77 c -148.6,208.4 -263.8,344.75 -312.4,347.06 -158.7,7.55 -1172.9,-932.02 -1224.3,-930.58 -51.4,1.45 -1438.5,2117.89 -1710.8,2087.2 -238.4,-26.86 -1831.96,-1305.54 -1831.96,-1305.54 0,0 -2045.27,3092.35 -2489.43,3111.06 -444.16,18.72 -4652.2,-5674.9 -4652.2,-5674.9 l 12221.09,151.27 v 2214.43" /><path
         id="path48"
         style="fill:#668e8b;fill-opacity:1;fill-rule:nonzero;stroke:none"
         d="m 5425.95,2683.78 h -388.39 l 1444.73,5593.18 c -37.89,22.36 -70.75,34.88 -97.68,36.01 -444.16,18.72 -4652.2,-5674.9 -4652.2,-5674.9 l 3693.54,45.71" /><path
         id="path50"
         style="fill:#668e8b;fill-opacity:1;fill-rule:nonzero;stroke:none"
         d="m 10780.5,2750.06 c -179.3,645.92 -87.9,2989.77 -52.3,3754.93 -8.3,2.33 -15.8,3.2 -22.2,2.46 -238.4,-26.86 -1831.94,-1305.54 -1831.94,-1305.54 l 1117.72,-2461.61 788.72,9.76" /><path
         id="path52"
         style="fill:#709a99;fill-opacity:1;fill-rule:nonzero;stroke:none"
         d="M 4983.87,3943.34 C 4694.35,4270.2 2524.35,7231.95 2215.04,7197.09 1928.52,7164.8 13.0117,5627.8 13.0117,5627.8 c 0,0 -3.22264,4.88 -9.26561,13.98 V 2652.16 L 4983.87,2713.8 v 1229.54" /><path
         id="path54"
         style="fill:#668e8b;fill-opacity:1;fill-rule:nonzero;stroke:none"
         d="m 2304.63,2680.63 c -215.57,776.41 -105.63,3593.76 -62.88,4513.5 -10.03,2.8 -18.95,3.85 -26.71,2.96 C 1928.52,7164.8 13.0313,5627.8 13.0313,5627.8 L 3.74609,2668.91 2304.63,2680.63" /><path
         id="path56"
         style="fill:#7aca2a;fill-opacity:1;fill-rule:nonzero;stroke:none"
         d="M 10569.9,3435.79 C 9354.04,3812.54 9268.42,3298.81 7248.1,3560.23 5227.8,3821.68 4541.88,4771.57 3308.87,4982.14 2118.99,5185.33 137.184,3793.31 0,3695.68 V 1591.14 h 13692.5 v 720.05 c 0,0 -1906.7,747.87 -3122.6,1124.6" /><path
         id="path58"
         style="fill:#3e71b2;fill-opacity:1;fill-rule:nonzero;stroke:none"
         d="m 9950.15,7182.19 -211.84,-60.76 -201.92,73.73 -240.09,-152.15 237.21,90.87 204.6,-110.54 -0.01,-0.06 211.11,97.56 231.09,-105.49 -230.15,166.84" /><path
         id="path60"
         style="fill:#3e71b2;fill-opacity:1;fill-rule:nonzero;stroke:none"
         d="m 12056.6,8457.59 -233.2,-53.09 -180.6,66.06 -240,-152.15 237.2,90.87 204.6,-110.53 v -0.07 l 211.1,97.56 231.1,-105.49 -230.2,166.84" /><path
         id="path62"
         style="fill:#3e71b2;fill-opacity:1;fill-rule:nonzero;stroke:none"
         d="m 10343.7,7620.52 -160.4,-36.53 -124.3,45.46 -165.25,-104.7 163.25,62.52 140.8,-76.06 v -0.05 l 145.3,67.14 159,-72.59 -158.4,114.81" /><path
         id="path64"
         style="fill:#3e71b2;fill-opacity:1;fill-rule:nonzero;stroke:none"
         d="m 11395.4,7863.96 -160.5,-36.53 -124.3,45.45 -165.2,-104.69 163.2,62.52 140.8,-76.07 v -0.04 l 145.3,67.13 159,-72.58 -158.3,114.81" /><path
         id="path66"
         style="fill:#3e71b2;fill-opacity:1;fill-rule:nonzero;stroke:none"
         d="m 3504.04,6753.75 -182.12,-52.24 -173.58,63.39 -206.4,-130.8 203.92,78.12 175.9,-95.03 -0.02,-0.05 181.49,83.87 198.67,-90.69 -197.86,143.43" /><path
         id="path68"
         style="fill:#3e71b2;fill-opacity:1;fill-rule:nonzero;stroke:none"
         d="m 3842.38,7130.57 -137.93,-31.4 -106.85,39.08 -142.05,-90.01 140.34,53.75 121.04,-65.39 v -0.04 l 124.89,57.72 136.71,-62.4 -136.15,98.69" /><path
         id="path70"
         style="fill:#3e71b2;fill-opacity:1;fill-rule:nonzero;stroke:none"
         d="m 4746.46,7339.85 -137.93,-31.4 -106.84,39.08 -142.05,-90.01 140.34,53.75 121.03,-65.39 0.01,-0.04 124.88,57.71 136.72,-62.4 -136.16,98.7" /><path
         id="path72"
         style="fill:#7aca2a;fill-opacity:1;fill-rule:nonzero;stroke:none"
         d="m 11777.2,4040.83 c -909,0 -1653.6,-664.56 -1718,-1506.96 h 3436 c -64.4,842.4 -808.9,1506.96 -1718,1506.96" /><path
         id="path74"
         style="fill:#89cf25;fill-opacity:1;fill-rule:nonzero;stroke:none"
         d="m 8342.32,4352.91 c -1933.37,0 -2799.66,-825.18 -2936.66,-1607.5 h 6098.14 c -137,782.32 -1228.1,1607.5 -3161.48,1607.5" /><path
         id="path76"
         style="fill:#39b73e;fill-opacity:1;fill-rule:nonzero;stroke:none"
         d="m 9834.34,3447.43 -271.92,855.48 -271.92,-855.48 h 244.86 v -333.84 h 54.13 v 333.84 h 244.85" /><path
         id="path78"
         style="fill:#33b540;fill-opacity:1;fill-rule:nonzero;stroke:none"
         d="m 3371.92,4934.24 -122.86,386.52 -122.85,-386.52 h 110.63 v -150.83 h 24.45 v 150.83 h 110.63" /><path
         id="path80"
         style="fill:#33b540;fill-opacity:1;fill-rule:nonzero;stroke:none"
         d="m 3793.86,4934.24 -122.85,386.52 -122.86,-386.52 h 110.63 v -150.83 h 24.46 v 150.83 h 110.62" /><path
         id="path82"
         style="fill:#33b540;fill-opacity:1;fill-rule:nonzero;stroke:none"
         d="m 3591.97,4852.15 -166.67,524.37 -166.67,-524.37 h 150.08 v -204.63 h 33.18 v 204.63 h 150.08" /><path
         id="path84"
         style="fill:#33b540;fill-opacity:1;fill-rule:nonzero;stroke:none"
         d="m 2866.27,4370.16 -194.56,612.1 -194.55,-612.1 h 175.19 V 4131.3 h 38.73 v 238.86 h 175.19" /><path
         id="path86"
         style="fill:#33b540;fill-opacity:1;fill-rule:nonzero;stroke:none"
         d="m 3534.47,4370.16 -194.55,612.1 -194.56,-612.1 h 175.19 V 4131.3 h 38.73 v 238.86 h 175.19" /><path
         id="path88"
         style="fill:#33b540;fill-opacity:1;fill-rule:nonzero;stroke:none"
         d="m 3214.75,4240.15 -263.95,830.41 -263.94,-830.41 h 237.67 V 3916.1 h 52.54 v 324.05 h 237.68" /><path
         id="path90"
         style="fill:#33b540;fill-opacity:1;fill-rule:nonzero;stroke:none"
         d="m 4352.15,4420.2 -115.52,363.44 -115.52,-363.44 h 104.02 v -141.83 h 23 v 141.83 h 104.02" /><path
         id="path92"
         style="fill:#33b540;fill-opacity:1;fill-rule:nonzero;stroke:none"
         d="m 4748.91,4420.2 -115.52,363.44 -115.52,-363.44 h 104.02 v -141.83 h 23 v 141.83 h 104.02" /><path
         id="path94"
         style="fill:#33b540;fill-opacity:1;fill-rule:nonzero;stroke:none"
         d="M 4559.07,4343 4402.35,4836.07 4245.62,4343 h 141.13 v -192.41 h 31.19 V 4343 h 141.13" /><path
         id="path96"
         style="fill:#33b540;fill-opacity:1;fill-rule:nonzero;stroke:none"
         d="m 4909.77,4287.51 -103.32,325.04 -103.31,-325.04 h 93.03 v -126.85 h 20.56 v 126.85 h 93.04" /><path
         id="path98"
         style="fill:#33b540;fill-opacity:1;fill-rule:nonzero;stroke:none"
         d="m 5264.6,4287.51 -103.32,325.04 -103.31,-325.04 H 5151 v -126.85 h 20.57 v 126.85 h 93.03" /><path
         id="path100"
         style="fill:#33b540;fill-opacity:1;fill-rule:nonzero;stroke:none"
         d="m 5094.82,4218.47 -140.17,440.96 -140.16,-440.96 h 126.21 v -172.09 h 27.91 v 172.09 h 126.21" /><path
         id="path102"
         style="fill:#33b540;fill-opacity:1;fill-rule:nonzero;stroke:none"
         d="M 6850.02,4230.86 6734.49,4594.3 6618.97,4230.86 H 6723 v -141.83 h 22.99 v 141.83 h 104.03" /><path
         id="path104"
         style="fill:#33b540;fill-opacity:1;fill-rule:nonzero;stroke:none"
         d="m 7246.77,4230.86 -115.52,363.44 -115.52,-363.44 h 104.02 v -141.83 h 23 v 141.83 h 104.02" /><path
         id="path106"
         style="fill:#33b540;fill-opacity:1;fill-rule:nonzero;stroke:none"
         d="m 7056.93,4153.66 -156.72,493.07 -156.72,-493.07 h 141.12 v -192.41 h 31.2 v 192.41 h 141.12" /><path
         id="path108"
         style="fill:#33b540;fill-opacity:1;fill-rule:nonzero;stroke:none"
         d="M 7407.63,4098.17 7304.31,4423.21 7201,4098.17 h 93.03 v -126.85 h 20.57 v 126.85 h 93.03" /><path
         id="path110"
         style="fill:#33b540;fill-opacity:1;fill-rule:nonzero;stroke:none"
         d="m 7762.46,4098.17 -103.31,325.04 -103.32,-325.04 h 93.03 v -126.85 h 20.57 v 126.85 h 93.03" /><path
         id="path112"
         style="fill:#33b540;fill-opacity:1;fill-rule:nonzero;stroke:none"
         d="m 7592.68,4029.13 -140.16,440.97 -140.16,-440.97 h 126.21 v -172.08 h 27.9 v 172.08 h 126.21" /><path
         id="path114"
         style="fill:#33b540;fill-opacity:1;fill-rule:nonzero;stroke:none"
         d="m 7720.72,4365.57 -115.53,363.45 -115.52,-363.45 h 104.03 v -141.82 h 22.99 v 141.82 h 104.03" /><path
         id="path116"
         style="fill:#33b540;fill-opacity:1;fill-rule:nonzero;stroke:none"
         d="m 8117.47,4365.57 -115.52,363.45 -115.52,-363.45 h 104.02 v -141.82 h 23 v 141.82 h 104.02" /><path
         id="path118"
         style="fill:#33b540;fill-opacity:1;fill-rule:nonzero;stroke:none"
         d="m 7927.63,4288.38 -156.72,493.07 -156.72,-493.07 h 141.12 v -192.41 h 31.2 v 192.41 h 141.12" /><path
         id="path120"
         style="fill:#33b540;fill-opacity:1;fill-rule:nonzero;stroke:none"
         d="m 8278.33,4232.88 -103.32,325.04 -103.31,-325.04 h 93.03 v -126.84 h 20.57 v 126.84 h 93.03" /><path
         id="path122"
         style="fill:#33b540;fill-opacity:1;fill-rule:nonzero;stroke:none"
         d="m 8633.16,4232.88 -103.31,325.04 -103.32,-325.04 h 93.03 v -126.84 h 20.57 v 126.84 h 93.03" /><path
         id="path124"
         style="fill:#33b540;fill-opacity:1;fill-rule:nonzero;stroke:none"
         d="m 8463.38,4163.84 -140.16,440.97 -140.16,-440.97 h 126.21 v -172.08 h 27.9 v 172.08 h 126.21" /><path
         id="path126"
         style="fill:#33b540;fill-opacity:1;fill-rule:nonzero;stroke:none"
         d="m 8814.99,4320.64 -115.53,363.44 -115.52,-363.44 h 104.03 v -141.83 h 22.99 v 141.83 h 104.03" /><path
         id="path128"
         style="fill:#33b540;fill-opacity:1;fill-rule:nonzero;stroke:none"
         d="m 9211.74,4320.64 -115.52,363.44 -115.52,-363.44 h 104.02 v -141.83 h 23 v 141.83 h 104.02" /><path
         id="path130"
         style="fill:#33b540;fill-opacity:1;fill-rule:nonzero;stroke:none"
         d="m 9021.9,4243.44 -156.72,493.07 -156.72,-493.07 h 141.12 v -192.41 h 31.2 v 192.41 h 141.12" /><path
         id="path132"
         style="fill:#33b540;fill-opacity:1;fill-rule:nonzero;stroke:none"
         d="m 9372.6,4187.94 -103.32,325.04 -103.31,-325.04 H 9259 V 4061.1 h 20.57 v 126.84 h 93.03" /><path
         id="path134"
         style="fill:#33b540;fill-opacity:1;fill-rule:nonzero;stroke:none"
         d="m 9727.43,4187.94 -103.31,325.04 -103.32,-325.04 h 93.03 V 4061.1 h 20.57 v 126.84 h 93.03" /><path
         id="path136"
         style="fill:#33b540;fill-opacity:1;fill-rule:nonzero;stroke:none"
         d="m 9557.65,4118.91 -140.16,440.96 -140.16,-440.96 h 126.21 v -172.09 h 27.9 v 172.09 h 126.21" /><path
         id="path138"
         style="fill:#33b540;fill-opacity:1;fill-rule:nonzero;stroke:none"
         d="m 4171.53,3979.09 -142.84,449.41 -142.85,-449.41 h 128.63 v -175.37 h 28.43 v 175.37 h 128.63" /><path
         id="path140"
         style="fill:#33b540;fill-opacity:1;fill-rule:nonzero;stroke:none"
         d="m 4662.13,3979.09 -142.84,449.41 -142.85,-449.41 h 128.63 v -175.37 h 28.44 v 175.37 h 128.62" /><path
         id="path142"
         style="fill:#33b540;fill-opacity:1;fill-rule:nonzero;stroke:none"
         d="m 4427.39,3883.64 -193.79,609.69 -193.79,-609.69 h 174.5 v -237.93 h 38.58 v 237.93 h 174.5" /><path
         id="path144"
         style="fill:#33b540;fill-opacity:1;fill-rule:nonzero;stroke:none"
         d="m 1871.77,4065.27 -194.56,612.1 -194.56,-612.1 h 175.2 v -238.86 h 38.72 v 238.86 h 175.2" /><path
         id="path146"
         style="fill:#33b540;fill-opacity:1;fill-rule:nonzero;stroke:none"
         d="m 2539.97,4065.27 -194.56,612.1 -194.55,-612.1 h 175.19 v -238.86 h 38.73 v 238.86 h 175.19" /><path
         id="path148"
         style="fill:#33b540;fill-opacity:1;fill-rule:nonzero;stroke:none"
         d="m 2220.25,3935.26 -263.95,830.41 -263.95,-830.41 h 237.68 v -324.05 h 52.54 v 324.05 h 237.68" /><path
         id="path150"
         style="fill:#33b540;fill-opacity:1;fill-rule:nonzero;stroke:none"
         d="m 3896.46,4241.88 -194.56,612.1 -194.55,-612.1 h 175.19 v -238.86 h 38.73 v 238.86 h 175.19" /><path
         id="path152"
         style="fill:#33b540;fill-opacity:1;fill-rule:nonzero;stroke:none"
         d="m 3619.86,3521.63 -194.56,612.1 -194.56,-612.1 h 175.19 v -238.86 h 38.73 v 238.86 h 175.2" /><path
         id="path154"
         style="fill:#33b540;fill-opacity:1;fill-rule:nonzero;stroke:none"
         d="m 2950.8,3295.98 -263.94,830.41 -263.95,-830.41 h 237.68 v -324.05 h 52.54 v 324.05 h 237.67" /><path
         id="path156"
         style="fill:#39b73e;fill-opacity:1;fill-rule:nonzero;stroke:none"
         d="m 14010.7,3041.64 -7,377.26 c 0,0 -8.6,-0.14 -23,-0.43 -154.5,-3.13 -307.2,-34.97 -449.6,-95.03 -1156.5,-487.89 -2811.3,-590.99 -3768.87,-215.97 -560.8,219.64 -1154.49,451.76 -1829.08,554.36 -1134.02,-52.66 -2434.58,-380.86 -3094.4,-527.25 -132.52,-29.4 -278.51,-42.38 -433.43,-41.82 -1215.65,-300.51 -2311.81,-373.23 -2941.31,317.23 -419.8,460.45 -829.795,664.13 -1138.342,752.23 -67.016,19.14 -136.559,27.7 -206.23,26.01 -55.4497,-1.34 -115.69191,-2.17 -115.69191,-2.17 V 2427.07 H 14010.7 v 614.57" /><path
         id="path158"
         style="fill:#309d3f;fill-opacity:1;fill-rule:nonzero;stroke:none"
         d="M 2.88672,2533.87 C 1.91797,2533.87 0.964844,2533.8 0,2533.8 v -951.82 c 0.964844,-0.01 1.91797,-0.08 2.88672,-0.08 H 14010.7 v 951.97 H 2.88672" /><path
         id="path160"
         style="fill:#309d3f;fill-opacity:1;fill-rule:nonzero;stroke:none"
         d="m 328.242,2623 71.012,-91.25 H 50.9727 L 121.98,2623 c 52.481,67.44 153.786,67.44 206.262,0" /><path
         id="path162"
         style="fill:#309d3f;fill-opacity:1;fill-rule:nonzero;stroke:none"
         d="m 676.523,2623 71.012,-91.25 H 399.254 l 71.008,91.25 c 52.48,67.44 153.785,67.44 206.261,0" /><path
         id="path164"
         style="fill:#309d3f;fill-opacity:1;fill-rule:nonzero;stroke:none"
         d="m 1024.8,2623 71.01,-91.25 H 747.535 l 71.012,91.25 c 52.473,67.44 153.777,67.44 206.253,0" /><path
         id="path166"
         style="fill:#309d3f;fill-opacity:1;fill-rule:nonzero;stroke:none"
         d="m 1373.08,2623 71.01,-91.25 h -348.28 l 71.01,91.25 c 52.48,67.44 153.79,67.44 206.26,0" /><path
         id="path168"
         style="fill:#309d3f;fill-opacity:1;fill-rule:nonzero;stroke:none"
         d="m 1721.36,2623 71.01,-91.25 h -348.28 l 71.01,91.25 c 52.48,67.44 153.79,67.44 206.26,0" /><path
         id="path170"
         style="fill:#309d3f;fill-opacity:1;fill-rule:nonzero;stroke:none"
         d="m 2069.64,2623 71.01,-91.25 h -348.28 l 71.01,91.25 c 52.48,67.44 153.79,67.44 206.26,0" /><path
         id="path172"
         style="fill:#309d3f;fill-opacity:1;fill-rule:nonzero;stroke:none"
         d="m 2417.92,2623 71.01,-91.25 h -348.28 l 71.01,91.25 c 52.48,67.44 153.79,67.44 206.26,0" /><path
         id="path174"
         style="fill:#309d3f;fill-opacity:1;fill-rule:nonzero;stroke:none"
         d="m 2766.2,2623 71.01,-91.25 h -348.28 l 71.01,91.25 c 52.48,67.44 153.79,67.44 206.26,0" /><path
         id="path176"
         style="fill:#309d3f;fill-opacity:1;fill-rule:nonzero;stroke:none"
         d="m 3114.48,2623 71.01,-91.25 h -348.28 l 71.02,91.25 c 52.47,67.44 153.78,67.44 206.25,0" /><path
         id="path178"
         style="fill:#309d3f;fill-opacity:1;fill-rule:nonzero;stroke:none"
         d="m 3462.76,2623 71.01,-91.25 h -348.28 l 71.02,91.25 c 52.47,67.44 153.78,67.44 206.25,0" /><path
         id="path180"
         style="fill:#309d3f;fill-opacity:1;fill-rule:nonzero;stroke:none"
         d="m 3811.04,2623 71.01,-91.25 h -348.28 l 71.02,91.25 c 52.47,67.44 153.78,67.44 206.25,0" /><path
         id="path182"
         style="fill:#309d3f;fill-opacity:1;fill-rule:nonzero;stroke:none"
         d="m 4159.32,2623 71.01,-91.25 h -348.28 l 71.02,91.25 c 52.47,67.44 153.78,67.44 206.25,0" /><path
         id="path184"
         style="fill:#309d3f;fill-opacity:1;fill-rule:nonzero;stroke:none"
         d="m 4507.6,2623 71.01,-91.25 h -348.28 l 71.02,91.25 c 52.47,67.44 153.78,67.44 206.25,0" /><path
         id="path186"
         style="fill:#309d3f;fill-opacity:1;fill-rule:nonzero;stroke:none"
         d="m 4855.89,2623 71.01,-91.25 h -348.29 l 71.02,91.25 c 52.47,67.44 153.78,67.44 206.26,0" /><path
         id="path188"
         style="fill:#309d3f;fill-opacity:1;fill-rule:nonzero;stroke:none"
         d="m 5204.17,2623 71.01,-91.25 H 4926.9 l 71.01,91.25 c 52.47,67.44 153.78,67.44 206.26,0" /><path
         id="path190"
         style="fill:#309d3f;fill-opacity:1;fill-rule:nonzero;stroke:none"
         d="m 5552.45,2623 71.01,-91.25 h -348.28 l 71.01,91.25 c 52.47,67.44 153.78,67.44 206.26,0" /><path
         id="path192"
         style="fill:#309d3f;fill-opacity:1;fill-rule:nonzero;stroke:none"
         d="m 5900.73,2623 71.01,-91.25 h -348.28 l 71.01,91.25 c 52.48,67.44 153.78,67.44 206.26,0" /><path
         id="path194"
         style="fill:#309d3f;fill-opacity:1;fill-rule:nonzero;stroke:none"
         d="m 6249.01,2623 71.01,-91.25 h -348.28 l 71.01,91.25 c 52.48,67.44 153.78,67.44 206.26,0" /><path
         id="path196"
         style="fill:#309d3f;fill-opacity:1;fill-rule:nonzero;stroke:none"
         d="m 6597.29,2623 71.01,-91.25 h -348.28 l 71.01,91.25 c 52.48,67.44 153.78,67.44 206.26,0" /><path
         id="path198"
         style="fill:#309d3f;fill-opacity:1;fill-rule:nonzero;stroke:none"
         d="m 6945.57,2623 71.01,-91.25 H 6668.3 l 71.01,91.25 c 52.48,67.44 153.78,67.44 206.26,0" /><path
         id="path200"
         style="fill:#309d3f;fill-opacity:1;fill-rule:nonzero;stroke:none"
         d="m 7293.85,2623 71.01,-91.25 h -348.28 l 71.01,91.25 c 52.48,67.44 153.78,67.44 206.26,0" /><path
         id="path202"
         style="fill:#309d3f;fill-opacity:1;fill-rule:nonzero;stroke:none"
         d="m 7642.13,2623 71.01,-91.25 h -348.28 l 71.01,91.25 c 52.48,67.44 153.78,67.44 206.26,0" /><path
         id="path204"
         style="fill:#309d3f;fill-opacity:1;fill-rule:nonzero;stroke:none"
         d="m 7990.41,2623 71.01,-91.25 h -348.28 l 71.01,91.25 c 52.48,67.44 153.78,67.44 206.26,0" /><path
         id="path206"
         style="fill:#309d3f;fill-opacity:1;fill-rule:nonzero;stroke:none"
         d="m 8338.69,2623 71.01,-91.25 h -348.28 l 71.01,91.25 c 52.48,67.44 153.78,67.44 206.26,0" /><path
         id="path208"
         style="fill:#309d3f;fill-opacity:1;fill-rule:nonzero;stroke:none"
         d="m 8686.97,2623 71.01,-91.25 H 8409.7 l 71.01,91.25 c 52.48,67.44 153.78,67.44 206.26,0" /><path
         id="path210"
         style="fill:#309d3f;fill-opacity:1;fill-rule:nonzero;stroke:none"
         d="m 9035.25,2623 71.01,-91.25 h -348.28 l 71.01,91.25 c 52.48,67.44 153.78,67.44 206.26,0" /><path
         id="path212"
         style="fill:#309d3f;fill-opacity:1;fill-rule:nonzero;stroke:none"
         d="m 9383.53,2623 71.01,-91.25 h -348.28 l 71.01,91.25 c 52.48,67.44 153.78,67.44 206.26,0" /><path
         id="path214"
         style="fill:#309d3f;fill-opacity:1;fill-rule:nonzero;stroke:none"
         d="m 9731.81,2623 71.01,-91.25 h -348.28 l 71.01,91.25 c 52.48,67.44 153.78,67.44 206.26,0" /><path
         id="path216"
         style="fill:#309d3f;fill-opacity:1;fill-rule:nonzero;stroke:none"
         d="m 10080.1,2623 71,-91.25 h -348.28 l 71.01,91.25 c 52.48,67.44 153.77,67.44 206.27,0" /><path
         id="path218"
         style="fill:#309d3f;fill-opacity:1;fill-rule:nonzero;stroke:none"
         d="m 10428.4,2623 71,-91.25 h -348.3 l 71,91.25 c 52.5,67.44 153.8,67.44 206.3,0" /><path
         id="path220"
         style="fill:#309d3f;fill-opacity:1;fill-rule:nonzero;stroke:none"
         d="m 10776.6,2623 71.1,-91.25 h -348.3 l 71,91.25 c 52.5,67.44 153.8,67.44 206.2,0" /><path
         id="path222"
         style="fill:#309d3f;fill-opacity:1;fill-rule:nonzero;stroke:none"
         d="m 11124.9,2623 71,-91.25 h -348.2 l 71,91.25 c 52.4,67.44 153.8,67.44 206.2,0" /><path
         id="path224"
         style="fill:#309d3f;fill-opacity:1;fill-rule:nonzero;stroke:none"
         d="m 11473.2,2623 71,-91.25 h -348.3 l 71.1,91.25 c 52.4,67.44 153.7,67.44 206.2,0" /><path
         id="path226"
         style="fill:#309d3f;fill-opacity:1;fill-rule:nonzero;stroke:none"
         d="m 11821.5,2623 71,-91.25 h -348.3 l 71,91.25 c 52.5,67.44 153.8,67.44 206.3,0" /><path
         id="path228"
         style="fill:#309d3f;fill-opacity:1;fill-rule:nonzero;stroke:none"
         d="m 12169.8,2623 71,-91.25 h -348.3 l 71,91.25 c 52.5,67.44 153.8,67.44 206.3,0" /><path
         id="path230"
         style="fill:#309d3f;fill-opacity:1;fill-rule:nonzero;stroke:none"
         d="m 12518,2623 71.1,-91.25 h -348.3 l 71,91.25 c 52.5,67.44 153.8,67.44 206.2,0" /><path
         id="path232"
         style="fill:#309d3f;fill-opacity:1;fill-rule:nonzero;stroke:none"
         d="m 12866.3,2623 71,-91.25 h -348.2 l 71,91.25 c 52.4,67.44 153.8,67.44 206.2,0" /><path
         id="path234"
         style="fill:#309d3f;fill-opacity:1;fill-rule:nonzero;stroke:none"
         d="m 13214.6,2623 71,-91.25 h -348.3 l 71.1,91.25 c 52.4,67.44 153.7,67.44 206.2,0" /><path
         id="path236"
         style="fill:#309d3f;fill-opacity:1;fill-rule:nonzero;stroke:none"
         d="m 13562.9,2623 71,-91.25 h -348.3 l 71,91.25 c 52.5,67.44 153.8,67.44 206.3,0" /><path
         id="path238"
         style="fill:#309d3f;fill-opacity:1;fill-rule:nonzero;stroke:none"
         d="m 13911.2,2623 71,-91.25 h -348.3 l 71,91.25 c 52.5,67.44 153.8,67.44 206.3,0" /><path
         id="path240"
         style="fill:#309d3f;fill-opacity:1;fill-rule:nonzero;stroke:none"
         d="m 14010.7,2568.38 -28.5,-36.63 h 28.5 z" /><path
         id="path242"
         style="fill:#39b73e;fill-opacity:1;fill-rule:nonzero;stroke:none"
         d="m 10976.6,2778.3 h -69.5 v 683.95 h 69.5 V 2778.3" /><path
         id="path244"
         style="fill:#39b73e;fill-opacity:1;fill-rule:nonzero;stroke:none"
         d="m 11365.9,3478.98 c 0,-234.19 -189.8,-424.04 -424,-424.04 -234.2,0 -424.1,189.85 -424.1,424.04 0,234.19 424.1,841.04 424.1,841.04 0,0 424,-606.85 424,-841.04" /><path
         id="path246"
         style="fill:#5ec493;fill-opacity:1;fill-rule:nonzero;stroke:none"
         d="m 5603.95,1987.54 c 0,-224.03 -181.61,-405.64 -405.63,-405.64 -224.03,0 -405.64,181.61 -405.64,405.64 0,224.03 181.61,405.63 405.64,405.63 224.02,0 405.63,-181.6 405.63,-405.63" /><path
         id="path248"
         style="fill:#5ec493;fill-opacity:1;fill-rule:nonzero;stroke:none"
         d="m 5979.51,1923.08 c 0,-137.77 -111.69,-249.46 -249.46,-249.46 -137.77,0 -249.46,111.69 -249.46,249.46 0,137.77 111.69,249.46 249.46,249.46 137.77,0 249.46,-111.69 249.46,-249.46" /><path
         id="path250"
         style="fill:#5ec493;fill-opacity:1;fill-rule:nonzero;stroke:none"
         d="m 12468.4,1987.54 c 0,-224.03 -181.7,-405.64 -405.7,-405.64 -224,0 -405.6,181.61 -405.6,405.64 0,224.03 181.6,405.63 405.6,405.63 224,0 405.7,-181.6 405.7,-405.63" /><path
         id="path252"
         style="fill:#5ec493;fill-opacity:1;fill-rule:nonzero;stroke:none"
         d="m 12843.9,1923.08 c 0,-137.77 -111.7,-249.46 -249.5,-249.46 -137.7,0 -249.4,111.69 -249.4,249.46 0,137.77 111.7,249.46 249.4,249.46 137.8,0 249.5,-111.69 249.5,-249.46" /><path
         id="path254"
         style="fill:#5ec493;fill-opacity:1;fill-rule:nonzero;stroke:none"
         d="m 2366.85,2042.82 c 0,-254.55 -206.36,-460.92 -460.92,-460.92 -254.56,0 -460.92,206.37 -460.92,460.92 0,254.56 206.36,460.93 460.92,460.93 254.56,0 460.92,-206.37 460.92,-460.93" /><path
         id="path256"
         style="fill:#5ec493;fill-opacity:1;fill-rule:nonzero;stroke:none"
         d="m 1694.47,1923.08 c 0,-137.77 -111.69,-249.46 -249.46,-249.46 -137.78,0 -249.46,111.69 -249.46,249.46 0,137.77 111.68,249.46 249.46,249.46 137.77,0 249.46,-111.69 249.46,-249.46" /><path
         id="path258"
         style="fill:#5ec493;fill-opacity:1;fill-rule:nonzero;stroke:none"
         d="m 2737.48,1928.59 c 0,-191.47 -155.22,-346.69 -346.69,-346.69 -191.47,0 -346.69,155.22 -346.69,346.69 0,191.47 155.22,346.69 346.69,346.69 191.47,0 346.69,-155.22 346.69,-346.69" /><path
         id="path260"
         style="fill:#5ec493;fill-opacity:1;fill-rule:nonzero;stroke:none"
         d="M 0,1779.4 V 1567.85 H 14010.7 V 1779.4 H 0" /><path
         id="path262"
         style="fill:#3e77c4;fill-opacity:1;fill-rule:nonzero;stroke:none"
         d="M 0,1599.54 V 0 H 14010.7 V 1599.54 H 0" /><path
         id="path264"
         style="fill:#957f20;fill-opacity:1;fill-rule:nonzero;stroke:none"
         d="m 693.781,1793.56 h -88.308 v 869.49 h 88.308 v -869.49" /><path
         id="path266"
         style="fill:#27883d;fill-opacity:1;fill-rule:nonzero;stroke:none"
         d="m 954.766,3328.4 c 0,-168.52 -136.614,-305.13 -305.137,-305.13 -168.524,0 -305.141,136.61 -305.141,305.13 0,168.53 136.617,305.14 305.141,305.14 168.523,0 305.137,-136.61 305.137,-305.14" /><path
         id="path268"
         style="fill:#27883d;fill-opacity:1;fill-rule:nonzero;stroke:none"
         d="m 1188.71,2684.32 c 0,-297.72 -241.355,-539.08 -539.081,-539.08 -297.727,0 -539.078,241.36 -539.078,539.08 0,297.73 241.351,539.08 539.078,539.08 297.726,0 539.081,-241.35 539.081,-539.08" /><path
         id="path270"
         style="fill:#30af45;fill-opacity:1;fill-rule:nonzero;stroke:none"
         d="m 903.836,3159.74 c 32.129,48.33 50.93,106.28 50.93,168.66 0,168.53 -136.618,305.14 -305.137,305.14 v -1488.3 c 297.726,0 539.081,241.36 539.081,539.08 0,205.78 -115.35,384.58 -284.874,475.42" /><path
         id="path272"
         style="fill:#957f20;fill-opacity:1;fill-rule:nonzero;stroke:none"
         d="m 8583.94,1779.4 h 114.6 v 1158.47 h -114.6 V 1779.4" /><path
         id="path274"
         style="fill:#27883d;fill-opacity:1;fill-rule:nonzero;stroke:none"
         d="M 8641.24,4352.91 V 2265.93 c 386.35,0 699.54,313.2 699.54,699.54 0,386.34 -699.54,1387.44 -699.54,1387.44" /><path
         id="path276"
         style="fill:#30af45;fill-opacity:1;fill-rule:nonzero;stroke:none"
         d="m 7941.71,2965.47 c 0,-386.34 313.19,-699.54 699.53,-699.54 v 2086.98 c 0,0 -699.53,-1001.1 -699.53,-1387.44" /><path
         id="path278"
         style="fill:#5ec493;fill-opacity:1;fill-rule:nonzero;stroke:none"
         d="m 9804.96,2072.56 174.79,-302.75 H 9277.6 l 174.79,302.75 c 78.35,135.7 274.22,135.7 352.57,0" /><path
         id="path280"
         style="fill:#ffffff;fill-opacity:1;fill-rule:nonzero;stroke:none"
         d="M 5999.4,7473.9 H 4961.76 c -126.04,0 -229.17,103.12 -229.17,229.17 v 0 c 0,126.04 103.13,229.16 229.17,229.16 H 5999.4 c 126.04,0 229.16,-103.12 229.16,-229.16 v 0 c 0,-126.05 -103.12,-229.17 -229.16,-229.17" /><path
         id="path282"
         style="fill:#ffffff;fill-opacity:1;fill-rule:nonzero;stroke:none"
         d="M 5540.79,7703.2 H 4503.15 c -126.04,0 -229.16,103.13 -229.16,229.17 v 0 c 0,126.04 103.12,229.16 229.16,229.16 h 1037.64 c 126.04,0 229.17,-103.12 229.17,-229.16 v 0 c 0,-126.04 -103.13,-229.17 -229.17,-229.17" /><path
         id="path284"
         style="fill:#ffffff;fill-opacity:1;fill-rule:nonzero;stroke:none"
         d="m 7951.34,8978.38 h 1037.64 c 126.04,0 229.17,-103.12 229.17,-229.16 v 0 c 0,-126.04 -103.13,-229.17 -229.17,-229.17 H 7951.34 c -126.04,0 -229.16,103.13 -229.16,229.17 v 0 c 0,126.04 103.12,229.16 229.16,229.16" /><path
         id="path286"
         style="fill:#ffffff;fill-opacity:1;fill-rule:nonzero;stroke:none"
         d="m 8409.95,8749.08 h 1037.64 c 126.04,0 229.16,-103.12 229.16,-229.16 v 0 c 0,-126.05 -103.12,-229.17 -229.16,-229.17 H 8409.95 c -126.04,0 -229.16,103.12 -229.16,229.17 v 0 c 0,126.04 103.12,229.16 229.16,229.16" /><path
         id="path288"
         style="fill:#ffffff;fill-opacity:1;fill-rule:nonzero;stroke:none"
         d="m 13279.1,6206.12 h -1037.6 c -126,0 -229.2,103.12 -229.2,229.16 v 0 c 0,126.04 103.2,229.17 229.2,229.17 h 1037.6 c 126.1,0 229.2,-103.13 229.2,-229.17 v 0 c 0,-126.04 -103.1,-229.16 -229.2,-229.16" /><path
         id="path290"
         style="fill:#ffffff;fill-opacity:1;fill-rule:nonzero;stroke:none"
         d="m 12820.5,6435.42 h -1037.6 c -126,0 -229.2,103.12 -229.2,229.16 v 0 c 0,126.04 103.2,229.17 229.2,229.17 h 1037.6 c 126.1,0 229.2,-103.13 229.2,-229.17 v 0 c 0,-126.04 -103.1,-229.16 -229.2,-229.16" /><path
         id="path292"
         style="fill:#ffffff;fill-opacity:1;fill-rule:nonzero;stroke:none"
         d="m 14006,7120.52 c -18.3,4.75 -19.2,2.53 -38.9,2.53 h -1037.7 c -126,0 -229.2,-103.12 -229.2,-229.16 0,-126.05 103.2,-229.17 229.2,-229.17 h 1037.7 c 14.9,0 22.5,0.82 36.6,3.57 l 2.3,452.23" /><path
         id="path294"
         style="fill:#ffffff;fill-opacity:1;fill-rule:nonzero;stroke:none"
         d="m 2240.48,6195.62 h 1037.64 c 126.04,0 229.16,-103.12 229.16,-229.17 v 0 c 0,-126.04 -103.12,-229.16 -229.16,-229.16 H 2240.48 c -126.04,0 -229.17,103.12 -229.17,229.16 v 0 c 0,126.05 103.13,229.17 229.17,229.17" /><path
         id="path296"
         style="fill:#ffffff;fill-opacity:1;fill-rule:nonzero;stroke:none"
         d="m 2699.08,5966.32 h 1037.64 c 126.04,0 229.17,-103.13 229.17,-229.17 v 0 c 0,-126.04 -103.13,-229.16 -229.17,-229.16 H 2699.08 c -126.04,0 -229.16,103.12 -229.16,229.16 v 0 c 0,126.04 103.12,229.17 229.16,229.17" /><path
         id="path298"
         style="fill:#ffffff;fill-opacity:1;fill-rule:nonzero;stroke:none"
         d="m 1552.57,5737.02 h 1037.64 c 126.04,0 229.16,-103.13 229.16,-229.17 v 0 c 0,-126.04 -103.12,-229.17 -229.16,-229.17 H 1552.57 c -126.04,0 -229.17,103.13 -229.17,229.17 v 0 c 0,126.04 103.13,229.17 229.17,229.17" /><path
         id="path300"
         style="fill:#5ec493;fill-opacity:1;fill-rule:nonzero;stroke:none"
         d="m 3892.68,1798.89 v -0.01 c 38.84,-67.27 -9.71,-151.37 -87.39,-151.37 h -352.57 c -77.69,0 -126.24,84.1 -87.4,151.37 v 0.01 c 117.19,202.98 410.17,202.98 527.36,0" /><path
         id="path302"
         style="fill:#957f20;fill-opacity:1;fill-rule:nonzero;stroke:none"
         d="m 14010.7,1960.83 -101.5,-175.74 h 101.5 z" /><path
         id="path304"
         style="fill:#957f20;fill-opacity:1;fill-rule:nonzero;stroke:none"
         d="m 13372.9,1692.85 h -95.9 v 944.35 h 95.9 v -944.35" /><path
         id="path306"
         style="fill:#36b63f;fill-opacity:1;fill-rule:nonzero;stroke:none"
         d="m 13325,3800.32 481.8,-1515.91 h -963.7 z" /><path
         id="path308"
         style="fill:#30af45;fill-opacity:1;fill-rule:nonzero;stroke:none"
         d="M 12843.1,2284.41 H 13325 V 3800.32 Z" /><path
         id="path310"
         style="fill:#27883d;fill-opacity:1;fill-rule:nonzero;stroke:none"
         d="M 13325,3800.32 V 2284.41 h 481.8 z" /><path
         id="path312"
         style="fill:#5da1dc;fill-opacity:1;fill-rule:nonzero;stroke:none"
         d="m 8956.69,261.789 v 65.473 c -23.33,47.418 -71.99,80.148 -128.42,80.148 -56.42,0 -105.08,-32.73 -128.41,-80.148 -23.33,47.418 -71.98,80.148 -128.41,80.148 -56.42,0 -105.08,-32.73 -128.41,-80.148 -23.33,47.418 -71.99,80.148 -128.41,80.148 -56.43,0 -105.09,-32.73 -128.42,-80.148 -23.32,47.418 -71.98,80.148 -128.41,80.148 -56.42,0 -105.08,-32.73 -128.41,-80.148 -23.33,47.418 -71.99,80.148 -128.41,80.148 -56.43,0 -105.09,-32.73 -128.42,-80.148 -23.32,47.418 -71.98,80.148 -128.41,80.148 -56.42,0 -105.08,-32.73 -128.41,-80.148 -23.33,47.418 -71.99,80.148 -128.41,80.148 -56.43,0 -105.09,-32.73 -128.41,-80.148 -23.33,47.418 -71.99,80.148 -128.42,80.148 -56.42,0 -105.08,-32.73 -128.41,-80.148 -23.33,47.418 -71.99,80.148 -128.41,80.148 -56.43,0 -105.08,-32.73 -128.41,-80.148 -23.33,47.418 -71.99,80.148 -128.42,80.148 -56.42,0 -105.08,-32.73 -128.41,-80.148 -23.33,47.418 -71.99,80.148 -128.41,80.148 -56.42,0 -105.08,-32.73 -128.41,-80.148 -23.33,47.418 -71.99,80.148 -128.41,80.148 -56.43,0 -105.09,-32.73 -128.42,-80.148 v -65.473 h 3081.9" /><path
         id="path314"
         style="fill:#5da1dc;fill-opacity:1;fill-rule:nonzero;stroke:none"
         d="m 2691.26,799.77 v 65.472 c -23.33,47.43 -71.99,80.149 -128.41,80.149 -56.43,0 -105.08,-32.719 -128.41,-80.149 -23.33,47.43 -71.99,80.149 -128.42,80.149 -56.42,0 -105.08,-32.719 -128.41,-80.149 -23.33,47.43 -71.99,80.149 -128.41,80.149 -56.43,0 -105.08,-32.719 -128.41,-80.149 -23.33,47.43 -71.99,80.149 -128.41,80.149 -56.43,0 -105.09,-32.719 -128.42,-80.149 -23.33,47.43 -71.98,80.149 -128.41,80.149 -56.42,0 -105.08,-32.719 -128.41,-80.149 -23.33,47.43 -71.99,80.149 -128.41,80.149 -56.43,0 -105.09,-32.719 -128.42,-80.149 -23.33,47.43 -71.98,80.149 -128.41,80.149 -56.423,0 -105.084,-32.719 -128.412,-80.149 V 799.77 H 2691.26" /><path
         id="path316"
         style="fill:#5da1dc;fill-opacity:1;fill-rule:nonzero;stroke:none"
         d="m 9428.73,551.602 v 65.468 c -23.33,47.43 -71.99,80.149 -128.41,80.149 -56.42,0 -105.08,-32.719 -128.41,-80.149 -23.33,47.43 -71.99,80.149 -128.41,80.149 -56.43,0 -105.09,-32.719 -128.42,-80.149 -23.33,47.43 -71.98,80.149 -128.41,80.149 -56.42,0 -105.08,-32.719 -128.41,-80.149 -23.33,47.43 -71.99,80.149 -128.41,80.149 -56.43,0 -105.09,-32.719 -128.42,-80.149 -23.32,47.43 -71.98,80.149 -128.41,80.149 -56.42,0 -105.08,-32.719 -128.41,-80.149 -23.33,47.43 -71.99,80.149 -128.41,80.149 -56.43,0 -105.08,-32.719 -128.41,-80.149 -23.33,47.43 -71.99,80.149 -128.42,80.149 -56.42,0 -105.08,-32.719 -128.41,-80.149 v -65.468 h 1797.77" /><path
         id="path318"
         style="fill:#5da1dc;fill-opacity:1;fill-rule:nonzero;stroke:none"
         d="m 13487.9,624.41 v 65.469 c -23.3,47.434 -71.9,80.152 -128.4,80.152 -56.4,0 -105,-32.718 -128.4,-80.152 -23.3,47.434 -72,80.152 -128.4,80.152 -56.4,0 -105.1,-32.718 -128.4,-80.152 -23.3,47.434 -72,80.152 -128.4,80.152 -56.4,0 -105.1,-32.718 -128.4,-80.152 -23.4,47.434 -72,80.152 -128.4,80.152 -56.5,0 -105.1,-32.718 -128.5,-80.152 -23.3,47.434 -71.9,80.152 -128.4,80.152 -56.4,0 -105,-32.718 -128.4,-80.152 -23.3,47.434 -72,80.152 -128.4,80.152 -56.4,0 -105.1,-32.718 -128.4,-80.152 -23.3,47.434 -72,80.152 -128.4,80.152 -56.4,0 -105.1,-32.718 -128.4,-80.152 V 624.41 h 1797.7" /><path
         id="path320"
         style="fill:#5da1dc;fill-opacity:1;fill-rule:nonzero;stroke:none"
         d="m 10889.9,1103.16 v 65.47 c -23.3,47.43 -71.9,80.15 -128.4,80.15 -56.4,0 -105.1,-32.72 -128.4,-80.15 -23.3,47.43 -72,80.15 -128.4,80.15 -56.4,0 -105.1,-32.72 -128.4,-80.15 -23.3,47.43 -72,80.15 -128.4,80.15 -56.4,0 -105.1,-32.72 -128.4,-80.15 -23.4,47.43 -72,80.15 -128.44,80.15 -56.43,0 -105.08,-32.72 -128.41,-80.15 -23.33,47.43 -71.99,80.15 -128.42,80.15 -56.42,0 -105.08,-32.72 -128.41,-80.15 v -65.47 h 1284.08" /><path
         id="path322"
         style="fill:#5da1dc;fill-opacity:1;fill-rule:nonzero;stroke:none"
         d="m 6372.11,551.602 v 65.468 c -23.33,47.43 -71.99,80.149 -128.41,80.149 -56.43,0 -105.09,-32.719 -128.41,-80.149 -23.33,47.43 -71.99,80.149 -128.42,80.149 -56.42,0 -105.08,-32.719 -128.41,-80.149 -23.33,47.43 -71.99,80.149 -128.41,80.149 -56.43,0 -105.09,-32.719 -128.41,-80.149 -23.33,47.43 -71.99,80.149 -128.42,80.149 -56.42,0 -105.08,-32.719 -128.41,-80.149 -23.33,47.43 -71.98,80.149 -128.41,80.149 -56.42,0 -105.08,-32.719 -128.41,-80.149 v -65.468 h 1284.12" /><path
         id="path324"
         style="fill:#5da1dc;fill-opacity:1;fill-rule:nonzero;stroke:none"
         d="m 3250.64,1103.16 v 65.47 c -23.33,47.43 -71.99,80.15 -128.42,80.15 -56.42,0 -105.08,-32.72 -128.41,-80.15 -23.33,47.43 -71.98,80.15 -128.41,80.15 -56.43,0 -105.08,-32.72 -128.41,-80.15 -23.33,47.43 -71.99,80.15 -128.41,80.15 -56.43,0 -105.09,-32.72 -128.42,-80.15 -23.32,47.43 -71.98,80.15 -128.41,80.15 -56.42,0 -105.08,-32.72 -128.41,-80.15 -23.33,47.43 -71.99,80.15 -128.41,80.15 -56.43,0 -105.09,-32.72 -128.42,-80.15 v -65.47 h 1284.13" /></g></g></svg>